<?xml version="1.0" encoding="utf-8"?>
<!-- Generator: Adobe Illustrator 26.0.3, SVG Export Plug-In . SVG Version: 6.00 Build 0)  -->
<svg version="1.1" id="Layer_1" xmlns="http://www.w3.org/2000/svg" xmlns:xlink="http://www.w3.org/1999/xlink" x="0px" y="0px"
	 viewBox="0 0 773.4 137.1" style="enable-background:new 0 0 773.4 137.1;" xml:space="preserve">
<style type="text/css">
	.st0{fill-rule:evenodd;clip-rule:evenodd;fill:#18AE4B;}
	.st1{fill-rule:evenodd;clip-rule:evenodd;fill:#E6B74E;}
	.st2{fill-rule:evenodd;clip-rule:evenodd;fill:#58BA52;}
	.st3{enable-background:new    ;}
	.st4{fill:#18AE4B;}
	.st5{fill:#12AE3A;}
</style>
<path class="st0" d="M78,108.9c10-7.7,19.7-17.9,22-30.2c2.3-13.5-5.6-25.6-14.6-34.5L55,14.1L24.9,44.3c-9.2,9.2-17.1,21-14.6,34.5
	c2,12,12,22.5,22,30.2V88.5l0,0v-3.6v-1.3l0,0v-1.5c0-2.8-3.6-1.5-3.3-3.3h3.3h1h3.8c2.8,0,4.9,2.3,4.9,4.9V85v42.7l-7.7-4.9
	C19.5,113.1,3.6,99,0.6,80.9C-2.5,64,6.5,49.2,18,37.7L55,0.6l37.1,37.1c11.5,11.5,20.4,26.3,17.4,43.2
	c-3.3,18.1-18.9,32.2-33.7,41.9l-7.4,4.9V78.5l0,0v-1v-3.8l0,0l0,0c0-2.8,2.3-4.9,4.9-4.9h3.8h1h3.3c0.3,1.8-3.3,0.5-3.3,3.3v6.4
	L78,108.9L78,108.9z M50.2,137.1h4.9c2.8,0,4.9-2.3,4.9-4.9v-4.9V61.6v-4.9c0-2.8-2.3-4.9-4.9-4.9h-3.8h-1h-3.4
	c-0.3,1.8,3.3,0.5,3.3,3.3v1.5v4.9v65.7v4.9V137.1L50.2,137.1z M73.2,57.3c-2.8,0-4.9,2.3-4.9,4.9s2.3,4.9,4.9,4.9
	c2.8,0,4.9-2.3,4.9-4.9C78,59.6,76,57.3,73.2,57.3L73.2,57.3z M55,40.7c2.8,0,4.9,2.3,4.9,4.9c0,2.8-2.3,4.9-4.9,4.9
	c-2.6,0-4.9-2.3-4.9-4.9C50.2,43,52.5,40.7,55,40.7L55,40.7z M37.2,67.5c2.8,0,4.9,2.3,4.9,4.9c0,2.8-2.3,4.9-4.9,4.9
	c-2.8,0-4.9-2.3-4.9-4.9C32,69.8,34.3,67.5,37.2,67.5L37.2,67.5z"/>
<path class="st1" d="M36.9,67.5c-2.6,0-4.9,2.3-4.9,4.9c0,2.8,2.3,4.9,4.9,4.9c2.8,0,4.9-2.3,4.9-4.9C42,69.8,39.7,67.5,36.9,67.5z
	 M55,40.7c-2.6,0-4.9,2.3-4.9,4.9c0,2.8,2.3,4.9,4.9,4.9c2.8,0,4.9-2,4.9-4.9C59.9,43,57.9,40.7,55,40.7z M73.2,57.3
	c-2.8,0-4.9,2.3-4.9,4.9c0,2.8,2.3,4.9,4.9,4.9s4.9-2,4.9-4.9C78,59.6,76,57.3,73.2,57.3z M55,51.9h-8.1c-0.3,1.8,3.3,0.5,3.3,3.3
	v37.1c1.5,0,3.3,0,4.9,0c1.5,0,3.3,0,4.9,0V56.8C59.9,54,57.9,51.9,55,51.9z M73.2,68.5c-1.3,0-2.6,0.5-3.3,1.5c-1,1-1.5,2-1.5,3.6
	l0,0v3.9v1v13.3c3.3-0.5,6.6-1,9.7-1.5v-12v-6.4c0-2.8,3.6-1.5,3.3-3.3C81.4,68.5,73.2,68.5,73.2,68.5z M36.9,78.8h-8.2
	c-0.3,1.8,3.3,0.5,3.3,3.3v8.2c3.1,0.8,6.4,1.3,9.7,1.5v-7.9C42,80.8,39.7,78.8,36.9,78.8z"/>
<path class="st2" d="M110,77.8c-3.6,2-7.4,4.1-11.2,5.9c0.5-1.5,1-3.1,1.3-4.6c2.2-13.6-5.7-25.6-14.6-34.6L55,14.1L24.9,44.3
	c-9.2,9.2-17.1,21-14.6,34.5c0.3,1.5,0.8,3.1,1.3,4.6c-3.8-1.8-7.7-3.6-11.3-5.9c-1.5-15.6,6.9-29.4,17.9-40.4L55.3,0l37.1,37.1
	C103.1,48.4,111.5,62.2,110,77.8z"/>
<g class="st3">
	<path class="st4" d="M174.7,33l0.5,10h-1.3c-0.3-1.8-0.5-3.1-1-3.8c-0.8-1.3-1.5-2-2.6-2.6c-1-0.5-2.6-0.8-4.3-0.8h-5.9V68
		c0,2.6,0.3,4.1,0.8,4.9c0.8,0.8,2,1.3,3.6,1.3h1.5v1.3h-17.9v-1.3h1.5c1.8,0,3.1-0.5,3.8-1.5c0.5-0.8,0.8-2.3,0.8-4.6V35.6h-5.1
		c-2,0-3.3,0.3-4.1,0.5c-1,0.5-2,1.3-2.8,2.3s-1.3,2.6-1.3,4.6h-1.3l0.5-10C140.1,33,174.7,33,174.7,33z"/>
	<path class="st4" d="M198.9,32c5.4,0,10.2,2,14.3,6.1s6.1,9.5,6.1,15.6c0,6.4-2,11.8-6.1,16.1c-4.1,4.3-8.9,6.4-14.8,6.4
		s-10.7-2-14.6-6.1c-3.8-4.1-5.9-9.5-5.9-16.1s2.3-12.3,6.9-16.4C188.7,33.8,193.3,32,198.9,32z M198.4,34.3c-3.8,0-6.9,1.3-9.2,4.1
		c-2.8,3.6-4.3,8.7-4.3,15.3c0,6.9,1.5,12.3,4.3,15.8c2.3,2.8,5.4,4.3,8.9,4.3c4.1,0,7.2-1.5,9.7-4.6c2.6-3.1,3.8-7.9,3.8-14.6
		c0-7.2-1.5-12.5-4.3-16.1C205.6,35.6,202.3,34.3,198.4,34.3z"/>
	<path class="st4" d="M220.9,33h11.5L258,64.7V40.4c0-2.6-0.3-4.1-0.8-4.9c-0.8-0.8-2-1.3-3.6-1.3h-1.5v-1.3h14.8v1h-1.5
		c-1.8,0-3.1,0.5-3.8,1.5c-0.5,0.8-0.8,2.3-0.8,4.6v35.5h-1l-27.9-34v26.1c0,2.6,0.3,4.1,0.8,4.9c0.8,0.8,2,1.3,3.6,1.3h1.5v1.3H223
		v-1.3h1.5c1.8,0,3.1-0.5,3.8-1.5c0.5-0.8,0.8-2.3,0.8-4.6V38.4c-1.3-1.5-2-2.3-2.8-2.8c-0.5-0.5-1.5-0.8-2.8-1.3
		C223,34,222,34,220.7,34v-1C220.7,33,220.9,33,220.9,33z"/>
	<path class="st4" d="M304.8,33l0.5,10H304c-0.3-1.8-0.5-3.1-1-3.8c-0.8-1.3-1.5-2-2.6-2.6s-2.6-0.8-4.3-0.8h-5.9V68
		c0,2.6,0.3,4.1,0.8,4.9c0.8,0.8,2,1.3,3.6,1.3h1.5v1.3h-17.9v-1.3h1.5c1.8,0,3.1-0.5,3.8-1.5c0.5-0.8,0.8-2.3,0.8-4.6V35.6h-5.1
		c-2,0-3.3,0.3-4.1,0.5c-1,0.5-2,1.3-2.8,2.3S271,41,271,43h-1.3l0.5-10C270.2,33,304.8,33,304.8,33z"/>
	<path class="st4" d="M328.8,32c5.4,0,10.2,2,14.3,6.1c4.1,4.1,6.1,9.5,6.1,15.6c0,6.4-2,11.8-6.1,16.1c-4.1,4.3-8.9,6.4-14.8,6.4
		s-10.7-2-14.6-6.1c-3.8-4.1-5.9-9.5-5.9-16.1s2.3-12.3,6.9-16.4C318.6,33.8,323.4,32,328.8,32z M328.3,34.3c-3.8,0-6.9,1.3-9.2,4.1
		c-2.8,3.6-4.3,8.7-4.3,15.3c0,6.9,1.5,12.3,4.3,15.8c2.3,2.8,5.4,4.3,8.9,4.3c4.1,0,7.2-1.5,9.7-4.6c2.6-3.1,3.8-7.9,3.8-14.6
		c0-7.2-1.5-12.5-4.3-16.1C335.4,35.6,332.4,34.3,328.3,34.3z"/>
	<path class="st4" d="M411.3,33v1c-1,0-2,0.3-2.6,0.5c-0.8,0.5-1.3,1-2,2.3c-0.5,0.8-1,2.6-2,5.1l-11.8,34h-1.3l-9.7-27.1l-9.5,27.1
		h-1l-12.5-35c-1-2.6-1.5-4.1-1.8-4.6c-0.5-0.8-1-1.3-1.8-1.8s-1.8-0.5-2.8-0.5v-1.3h15.6V34h-0.8c-1,0-2,0.3-2.6,0.8
		c-0.5,0.5-0.8,1-0.8,1.8s0.5,2.3,1.3,5.1l8.4,23.8l6.9-20.2l-1.3-3.6l-1-2.8c-0.5-1-1-2-1.5-2.8c-0.3-0.5-0.5-0.8-1-1
		c-0.5-0.3-1-0.8-1.5-0.8s-1-0.3-1.8-0.3v-1.3h16.5V34h-1c-1.3,0-2,0.3-2.6,0.8c-0.5,0.5-0.8,1.3-0.8,2c0,1,0.5,2.8,1.3,5.6l8.2,23
		l7.9-23.3c1-2.6,1.3-4.3,1.3-5.4c0-0.5-0.3-1-0.5-1.3c-0.3-0.5-0.8-0.8-1-0.8c-0.8-0.3-1.8-0.5-3.1-0.5v-1.3
		C398.6,33,411.3,33,411.3,33z"/>
	<path class="st4" d="M431.5,73.9v1.3h-18.1v-1.3h1.5c1.8,0,3.1-0.5,3.8-1.5c0.5-0.8,0.8-2.3,0.8-4.9V40.4c0-2-0.3-3.6-0.5-4.3
		c-0.3-0.5-0.5-1-1.3-1.3c-1-0.5-1.8-0.8-2.8-0.8h-1.5v-1.3h18.1V34H430c-1.8,0-3.1,0.5-3.8,1.5c-0.5,0.8-0.8,2.3-0.8,4.9v27.3
		c0,2,0.3,3.6,0.5,4.3c0.3,0.5,0.8,1,1.3,1.3c0.8,0.5,1.8,0.8,2.8,0.8h1.5V73.9z"/>
	<path class="st4" d="M468.6,73.9v1.3h-18.1v-1.3h1.5c1.8,0,3.1-0.5,3.8-1.5c0.5-0.8,0.8-2.3,0.8-4.9V40.4c0-2-0.3-3.6-0.5-4.3
		c-0.3-0.5-0.5-1-1.3-1.3c-1-0.5-1.8-0.8-2.8-0.8h-1.5v-1.3h18.1V34h-1.5c-1.8,0-3.1,0.5-3.8,1.5c-0.5,0.8-0.8,2.3-0.8,4.9v27.3
		c0,2,0.3,3.6,0.5,4.3c0.3,0.5,0.8,1,1.3,1.3c0.8,0.5,1.8,0.8,2.8,0.8h1.5V73.9z"/>
	<path class="st4" d="M469.4,33h11.5l25.8,31.7V40.4c0-2.6-0.3-4.1-0.8-4.9c-0.8-0.8-2-1.3-3.6-1.3h-1.5v-1.3h14.8v1h-1.5
		c-1.8,0-3.1,0.5-3.8,1.5c-0.5,0.8-0.8,2.3-0.8,4.6v35.5h-1l-28.1-33.7v26.1c0,2.6,0.3,4.1,0.8,4.9c0.8,0.8,2,1.3,3.6,1.3h1.5v1.4
		h-14.8v-1.3h1.5c1.8,0,3.1-0.5,3.8-1.5c0.5-0.8,0.8-2.3,0.8-4.6V38.4c-1.3-1.5-2-2.3-2.8-2.8s-1.5-0.8-2.8-1.3
		c-0.5-0.3-1.5-0.3-2.8-0.3v-1C469.2,33,469.4,33,469.4,33z"/>
	<path class="st4" d="M545.5,32v14.6h-1.3c-0.3-2.8-1-5.1-2-6.6c-1-1.8-2.3-3.1-4.1-3.8c-1.8-1-3.6-1.5-5.6-1.5s-3.8,0.8-5.4,2
		c-1.5,1.3-2,2.8-2,4.6c0,1.3,0.5,2.6,1.3,3.6c1.3,1.5,4.3,3.6,9.2,6.1c3.8,2,6.6,3.8,8.2,4.9s2.6,2.6,3.3,4.1
		c0.7,1.5,1.3,3.1,1.3,4.9c0,3.3-1.3,5.9-3.8,8.2s-5.7,3.4-9.5,3.4c-1.3,0-2.3,0-3.6-0.3c-0.8,0-2-0.5-4.1-1c-2-0.5-3.3-1-3.8-1
		s-1,0.3-1.3,0.5c-0.3,0.3-0.5,1-0.8,2h-1.3V62.2h1.3c0.5,3.1,1.3,5.4,2.3,6.9s2.3,2.8,4.1,3.8s3.8,1.5,6.1,1.5c2.6,0,4.6-0.8,6.1-2
		c1.5-1.3,2.3-3.1,2.3-4.9c0-1-0.3-2-0.8-3.1c-0.5-1-1.5-2-2.6-3.1c-0.8-0.5-3.1-2-6.6-4.1s-6.1-3.6-7.7-4.9
		c-1.5-1.3-2.6-2.6-3.6-4.1c-0.8-1.5-1.3-3.1-1.3-4.9c0-3.1,1.3-5.6,3.6-7.9s5.4-3.3,8.9-3.3c2.3,0,4.6,0.5,7.2,1.5
		c1.3,0.5,2,0.8,2.6,0.8c0.5,0,1-0.3,1.3-0.5c0.3-0.3,0.5-1,0.8-2C544.3,32,545.5,32,545.5,32z"/>
	<path class="st4" d="M588.7,33l0.5,10h-1.3c-0.3-1.8-0.5-3.1-1-3.8c-0.8-1.3-1.5-2-2.6-2.6c-1-0.5-2.6-0.8-4.3-0.8h-5.9V68
		c0,2.6,0.3,4.1,0.8,4.9c0.8,0.8,2,1.3,3.6,1.3h1.5v1.3h-17.9v-1.3h1.5c1.8,0,3.1-0.5,3.8-1.5c0.5-0.8,0.8-2.3,0.8-4.6V35.6h-5.1
		c-2,0-3.3,0.3-4.1,0.5c-1,0.5-2,1.3-2.8,2.3s-1.3,2.6-1.3,4.6h-1.3l0.5-10C554.1,33,588.7,33,588.7,33z"/>
	<path class="st4" d="M610.5,73.9v1.3h-18.1v-1.3h1.5c1.8,0,3.1-0.5,3.8-1.5c0.5-0.8,0.8-2.3,0.8-4.9V40.4c0-2-0.3-3.6-0.5-4.3
		c-0.3-0.5-0.5-1-1.3-1.3c-1-0.5-1.8-0.8-2.8-0.8h-1.5v-1.3h18.1V34h-1.6c-1.8,0-3.1,0.5-3.8,1.5c-0.5,0.8-0.8,2.3-0.8,4.9v27.3
		c0,2,0.3,3.6,0.5,4.3c0.3,0.5,0.8,1,1.3,1.3c0.8,0.5,1.8,0.8,2.8,0.8h1.5L610.5,73.9L610.5,73.9z"/>
	<path class="st4" d="M648.8,33l0.5,10H648c-0.3-1.8-0.5-3.1-1-3.8c-0.8-1.3-1.5-2-2.6-2.6c-1-0.5-2.6-0.8-4.3-0.8h-5.9V68
		c0,2.6,0.3,4.1,0.8,4.9c0.8,0.8,2,1.3,3.6,1.3h1.5v1.3h-17.9v-1.3h1.5c1.8,0,3.1-0.5,3.8-1.5c0.5-0.8,0.8-2.3,0.8-4.6V35.6h-5.1
		c-2,0-3.3,0.3-4.1,0.5c-1,0.5-2,1.3-2.8,2.3S615,41,615,43h-1.3l0.5-10C614.2,33,648.8,33,648.8,33z"/>
	<path class="st4" d="M681.5,34v-1.3h14.8V34h-1.5c-1.8,0-3.1,0.8-3.8,2c-0.5,0.8-0.8,2-0.8,4.6v17.1c0,4.3-0.5,7.4-1.3,10
		c-0.8,2.3-2.6,4.3-4.9,6.1c-2.6,1.8-5.9,2.6-10,2.6c-4.6,0-8.2-0.8-10.5-2.3s-4.1-3.8-5.1-6.4c-0.8-1.8-1-5.4-1-10.5V40.7
		c0-2.6-0.3-4.3-1-5.1c-0.8-0.8-1.8-1.3-3.6-1.3h-1.5V33h18.1v1h-1.5c-1.8,0-3.1,0.5-3.8,1.5c-0.5,0.8-0.8,2.3-0.8,4.6v18.4
		c0,1.5,0.3,3.6,0.5,5.6c0.3,2,0.8,3.8,1.5,4.9c0.8,1.3,2,2,3.3,2.8c1.5,0.8,3.3,1.3,5.4,1.3c2.8,0,5.1-0.5,7.4-1.8s3.6-2.8,4.3-4.6
		c0.8-1.8,1.3-5.1,1.3-9.5v-17c0-2.6-0.3-4.3-0.8-4.9c-0.8-1-2-1.3-3.6-1.3C682.8,34,681.5,34,681.5,34z"/>
	<path class="st4" d="M733.9,33l0.5,10h-1.3c-0.3-1.8-0.5-3.1-1-3.8c-0.8-1.3-1.5-2-2.6-2.6c-1-0.5-2.6-0.8-4.3-0.8h-5.9V68
		c0,2.6,0.3,4.1,0.8,4.9c0.8,0.8,2,1.3,3.6,1.3h1.5v1.3h-17.9v-1.3h1.5c1.8,0,3.1-0.5,3.8-1.5c0.5-0.8,0.8-2.3,0.8-4.6V35.6h-5.1
		c-2,0-3.3,0.3-4.1,0.5c-1,0.5-2,1.3-2.8,2.3s-1.3,2.6-1.3,4.6h-1.2l0.5-10C699.4,33,733.9,33,733.9,33z"/>
	<path class="st4" d="M749.2,35.3v16.6h9.2c2.3,0,4.1-0.3,4.9-1c1-1,1.8-2.6,1.8-5.1h1.3v14.8h-1.3c-0.3-2-0.5-3.3-0.8-3.8
		c-0.3-0.8-1-1.3-1.8-1.8s-2-0.5-3.8-0.5h-9.2v13.8c0,1.8,0,3.1,0.3,3.3c0.3,0.5,0.5,0.8,0.8,1c0.5,0.3,1.3,0.3,2.3,0.3h7.2
		c2.3,0,4.1-0.3,5.1-0.5c1-0.3,2-1,3.1-2c1.3-1.3,2.6-3.3,3.8-5.9h1.3L769.8,75h-32.5v-1.3h1.5c1,0,2-0.3,2.8-0.8
		c0.8-0.3,1-0.8,1.3-1.5s0.3-2,0.3-4.1V40.2c0-2.6-0.3-4.3-0.8-4.9c-0.8-0.8-2-1.3-3.8-1.3h-1.5v-1.3h32.5l0.5,9.2h-0.8
		c-0.5-2.3-1-3.8-1.5-4.6s-1.3-1.5-2.3-1.8c-0.8-0.3-2.3-0.5-4.3-0.5h-11.8v0.3H749.2z"/>
</g>
<g>
	<path class="st5" d="M149,99.8v8.1h4.5c1.2,0,1.9-0.2,2.3-0.5c0.5-0.5,0.8-1.3,0.9-2.4h0.6v7.1h-0.6c-0.1-1-0.3-1.6-0.4-1.9
		c-0.2-0.4-0.5-0.6-0.9-0.8c-0.4-0.2-1-0.3-1.9-0.3H149v6.8c0,0.9,0,1.5,0.1,1.7c0.1,0.2,0.2,0.4,0.4,0.5c0.2,0.1,0.6,0.2,1.1,0.2
		h3.5c1.2,0,2-0.1,2.5-0.2s1-0.5,1.5-1c0.6-0.6,1.3-1.6,1.9-2.8h0.6l-1.8,5.1h-15.8v-0.6h0.7c0.5,0,0.9-0.1,1.4-0.3
		c0.3-0.2,0.5-0.4,0.7-0.7s0.2-1,0.2-2v-13.3c0-1.3-0.1-2.1-0.4-2.4c-0.4-0.4-1-0.6-1.8-0.6h-0.7v-0.6H159l0.2,4.5h-0.6
		c-0.2-1.1-0.4-1.8-0.7-2.2s-0.6-0.7-1.1-0.9c-0.4-0.2-1.1-0.2-2.1-0.2H149z"/>
	<path class="st5" d="M174.1,107.8l4.4,6.6c1.2,1.8,2.1,3,2.7,3.4s1.3,0.7,2.2,0.8v0.6h-8.8v-0.6c0.6,0,1-0.1,1.3-0.2
		c0.2-0.1,0.4-0.2,0.5-0.4c0.1-0.2,0.2-0.4,0.2-0.6c0-0.2,0-0.5-0.1-0.7c-0.1-0.2-0.3-0.6-0.8-1.3l-3.5-5.3l-4.3,5.5
		c-0.5,0.6-0.7,1-0.8,1.2s-0.1,0.4-0.1,0.6c0,0.3,0.1,0.6,0.4,0.8c0.3,0.2,0.8,0.3,1.6,0.4v0.6h-7.3v-0.6c0.5-0.1,1-0.2,1.3-0.3
		c0.6-0.3,1.2-0.6,1.8-1.1c0.6-0.4,1.2-1.1,1.9-2l4.8-6.1l-4-5.9c-1.1-1.6-2-2.7-2.8-3.1c-0.8-0.5-1.6-0.8-2.6-0.8v-0.6h9.5v0.6
		c-0.8,0-1.4,0.2-1.7,0.4c-0.3,0.2-0.4,0.5-0.4,0.8c0,0.4,0.2,0.9,0.7,1.6l3.1,4.7l3.6-4.6c0.4-0.5,0.7-0.9,0.8-1.1
		c0.1-0.2,0.1-0.4,0.1-0.6c0-0.2-0.1-0.4-0.2-0.6c-0.2-0.2-0.3-0.4-0.6-0.4c-0.2-0.1-0.7-0.1-1.4-0.1v-0.6h7.3v0.6
		c-0.6,0-1,0.1-1.4,0.3c-0.5,0.2-1,0.5-1.5,0.9c-0.5,0.4-1.1,1.1-1.9,2.2L174.1,107.8z"/>
	<path class="st5" d="M201.7,98.7l0.2,4.8h-0.6c-0.1-0.8-0.3-1.5-0.5-1.8c-0.3-0.6-0.7-1-1.2-1.3c-0.5-0.3-1.2-0.4-2-0.4h-2.9v15.6
		c0,1.3,0.1,2,0.4,2.4c0.4,0.4,1,0.6,1.8,0.6h0.7v0.6h-8.7v-0.6h0.7c0.9,0,1.5-0.3,1.8-0.8c0.2-0.3,0.3-1.1,0.3-2.2V100h-2.5
		c-1,0-1.6,0.1-2,0.2c-0.5,0.2-1,0.6-1.3,1.1s-0.6,1.3-0.7,2.2h-0.6l0.2-4.8H201.7z"/>
	<path class="st5" d="M209.2,99.8v8.1h4.5c1.2,0,1.9-0.2,2.3-0.5c0.5-0.5,0.8-1.3,0.9-2.4h0.6v7.1h-0.6c-0.1-1-0.3-1.6-0.4-1.9
		c-0.2-0.4-0.5-0.6-0.9-0.8c-0.4-0.2-1-0.3-1.9-0.3h-4.5v6.8c0,0.9,0,1.5,0.1,1.7c0.1,0.2,0.2,0.4,0.4,0.5c0.2,0.1,0.6,0.2,1.1,0.2
		h3.5c1.2,0,2-0.1,2.5-0.2s1-0.5,1.5-1c0.6-0.6,1.3-1.6,1.9-2.8h0.6l-1.8,5.1h-15.8v-0.6h0.7c0.5,0,0.9-0.1,1.4-0.3
		c0.3-0.2,0.5-0.4,0.7-0.7s0.2-1,0.2-2v-13.3c0-1.3-0.1-2.1-0.4-2.4c-0.4-0.4-1-0.6-1.8-0.6h-0.7v-0.6h15.8l0.2,4.5h-0.6
		c-0.2-1.1-0.4-1.8-0.7-2.2s-0.6-0.7-1.1-0.9c-0.4-0.2-1.1-0.2-2.1-0.2H209.2z"/>
	<path class="st5" d="M221.2,98.7h5.6l12.5,15.4v-11.8c0-1.3-0.1-2-0.4-2.4c-0.4-0.4-1-0.6-1.8-0.6h-0.7v-0.6h7.1v0.6h-0.7
		c-0.9,0-1.5,0.3-1.8,0.8c-0.2,0.3-0.3,1.1-0.3,2.2v17.3h-0.5L226.5,103v12.6c0,1.3,0.1,2,0.4,2.4c0.4,0.4,1,0.6,1.8,0.6h0.7v0.6
		h-7.1v-0.6h0.7c0.9,0,1.5-0.3,1.9-0.8c0.2-0.3,0.3-1.1,0.3-2.2v-14.2c-0.6-0.7-1-1.2-1.4-1.4c-0.3-0.2-0.8-0.4-1.4-0.6
		c-0.3-0.1-0.7-0.1-1.3-0.1V98.7z"/>
	<path class="st5" d="M244.5,119.2v-0.6h0.8c0.9,0,1.5-0.3,1.8-0.8c0.2-0.3,0.3-1.1,0.3-2.2v-13.2c0-1.3-0.1-2.1-0.4-2.4
		c-0.4-0.4-1-0.7-1.8-0.7h-0.8v-0.6h8.3c3.1,0,5.4,0.3,7,1c1.6,0.7,2.9,1.9,3.9,3.5s1.5,3.5,1.5,5.6c0,2.8-0.9,5.2-2.6,7.1
		c-1.9,2.1-4.9,3.2-8.9,3.2H244.5z M250.3,117.7c1.3,0.3,2.4,0.4,3.2,0.4c2.3,0,4.3-0.8,5.8-2.5c1.5-1.6,2.3-3.9,2.3-6.7
		c0-2.8-0.8-5.1-2.3-6.7s-3.5-2.4-5.9-2.4c-0.9,0-1.9,0.1-3.1,0.4V117.7z"/>
	<path class="st5" d="M292.6,98.2l0.5,7h-0.5c-0.6-2.1-1.5-3.6-2.7-4.5c-1.2-0.9-2.5-1.4-4.2-1.4c-1.4,0-2.6,0.3-3.7,1
		c-1.1,0.7-2,1.8-2.6,3.3c-0.6,1.5-0.9,3.4-0.9,5.6c0,1.9,0.3,3.5,0.9,4.8c0.6,1.4,1.5,2.4,2.7,3.1c1.2,0.7,2.6,1.1,4.1,1.1
		c1.3,0,2.5-0.3,3.5-0.9c1-0.6,2.1-1.7,3.4-3.4l0.5,0.3c-1,1.8-2.2,3.2-3.6,4c-1.4,0.8-3,1.3-4.9,1.3c-3.4,0-6-1.3-7.9-3.8
		c-1.4-1.9-2.1-4.1-2.1-6.6c0-2,0.5-3.9,1.4-5.6c0.9-1.7,2.2-3,3.8-4c1.6-0.9,3.4-1.4,5.3-1.4c1.5,0,2.9,0.4,4.4,1.1
		c0.4,0.2,0.7,0.3,0.9,0.3c0.3,0,0.5-0.1,0.7-0.3c0.3-0.3,0.4-0.7,0.6-1.1H292.6z"/>
	<path class="st5" d="M308.8,112.3h-7.9l-1.4,3.2c-0.3,0.8-0.5,1.4-0.5,1.8c0,0.3,0.1,0.6,0.4,0.8c0.3,0.2,0.9,0.4,1.9,0.5v0.6h-6.4
		v-0.6c0.9-0.2,1.4-0.3,1.7-0.6c0.5-0.5,1.1-1.5,1.7-2.9l7.2-16.9h0.5l7.1,17c0.6,1.4,1.1,2.3,1.6,2.7c0.5,0.4,1.1,0.6,2,0.7v0.6
		h-8.1v-0.6c0.8,0,1.4-0.2,1.7-0.4c0.3-0.2,0.4-0.5,0.4-0.8c0-0.4-0.2-1.1-0.6-2.1L308.8,112.3z M308.4,111.2l-3.5-8.3l-3.6,8.3
		H308.4z"/>
	<path class="st5" d="M323.3,109.6v6c0,1.3,0.1,2.1,0.4,2.4c0.4,0.4,1,0.7,1.7,0.7h0.8v0.6h-8.8v-0.6h0.8c0.9,0,1.5-0.3,1.9-0.8
		c0.2-0.3,0.3-1.1,0.3-2.2v-13.2c0-1.3-0.1-2.1-0.4-2.4c-0.4-0.4-1-0.7-1.8-0.7h-0.8v-0.6h7.5c1.8,0,3.3,0.2,4.3,0.6s1.9,1,2.7,1.9
		c0.7,0.9,1.1,2,1.1,3.2c0,1.7-0.6,3-1.7,4.1c-1.1,1-2.7,1.6-4.7,1.6c-0.5,0-1,0-1.6-0.1C324.6,109.8,324,109.7,323.3,109.6z
		 M323.3,108.7c0.5,0.1,1,0.2,1.4,0.2c0.4,0.1,0.8,0.1,1.1,0.1c1,0,2-0.4,2.7-1.2c0.8-0.8,1.1-1.9,1.1-3.1c0-0.9-0.2-1.7-0.5-2.5
		c-0.4-0.8-0.9-1.3-1.5-1.7c-0.7-0.4-1.4-0.6-2.3-0.6c-0.5,0-1.2,0.1-2,0.3V108.7z"/>
	<path class="st5" d="M345.5,112.3h-7.9l-1.4,3.2c-0.3,0.8-0.5,1.4-0.5,1.8c0,0.3,0.1,0.6,0.4,0.8c0.3,0.2,0.9,0.4,1.9,0.5v0.6h-6.4
		v-0.6c0.9-0.2,1.4-0.3,1.7-0.6c0.5-0.5,1.1-1.5,1.7-2.9l7.2-16.9h0.5l7.1,17c0.6,1.4,1.1,2.3,1.6,2.7c0.5,0.4,1.1,0.6,2,0.7v0.6
		h-8.1v-0.6c0.8,0,1.4-0.2,1.7-0.4c0.3-0.2,0.4-0.5,0.4-0.8c0-0.4-0.2-1.1-0.6-2.1L345.5,112.3z M345.1,111.2l-3.5-8.3l-3.6,8.3
		H345.1z"/>
	<path class="st5" d="M372.3,98.2l0.5,7h-0.5c-0.6-2.1-1.5-3.6-2.7-4.5c-1.2-0.9-2.5-1.4-4.2-1.4c-1.4,0-2.6,0.3-3.7,1
		c-1.1,0.7-2,1.8-2.6,3.3c-0.6,1.5-0.9,3.4-0.9,5.6c0,1.9,0.3,3.5,0.9,4.8c0.6,1.4,1.5,2.4,2.7,3.1c1.2,0.7,2.6,1.1,4.1,1.1
		c1.3,0,2.5-0.3,3.5-0.9c1-0.6,2.1-1.7,3.4-3.4l0.5,0.3c-1,1.8-2.2,3.2-3.6,4c-1.4,0.8-3,1.3-4.9,1.3c-3.4,0-6-1.3-7.9-3.8
		c-1.4-1.9-2.1-4.1-2.1-6.6c0-2,0.5-3.9,1.4-5.6c0.9-1.7,2.2-3,3.8-4c1.6-0.9,3.4-1.4,5.3-1.4c1.5,0,2.9,0.4,4.4,1.1
		c0.4,0.2,0.7,0.3,0.9,0.3c0.3,0,0.5-0.1,0.7-0.3c0.3-0.3,0.4-0.7,0.6-1.1H372.3z"/>
	<path class="st5" d="M383.8,118.6v0.6h-8.8v-0.6h0.7c0.8,0,1.5-0.2,1.8-0.7c0.2-0.3,0.4-1.1,0.4-2.3v-13.2c0-1-0.1-1.7-0.2-2.1
		c-0.1-0.3-0.3-0.5-0.6-0.6c-0.4-0.2-0.9-0.4-1.4-0.4h-0.7v-0.6h8.8v0.6h-0.7c-0.8,0-1.4,0.2-1.8,0.7c-0.3,0.3-0.4,1.1-0.4,2.3v13.2
		c0,1,0.1,1.7,0.2,2.1c0.1,0.3,0.3,0.5,0.6,0.6c0.4,0.2,0.9,0.4,1.4,0.4H383.8z"/>
	<path class="st5" d="M402.5,98.7l0.2,4.8h-0.6c-0.1-0.8-0.3-1.5-0.5-1.8c-0.3-0.6-0.7-1-1.2-1.3c-0.5-0.3-1.2-0.4-2-0.4h-2.9v15.6
		c0,1.3,0.1,2,0.4,2.4c0.4,0.4,1,0.6,1.8,0.6h0.7v0.6h-8.7v-0.6h0.7c0.9,0,1.5-0.3,1.8-0.8c0.2-0.3,0.3-1.1,0.3-2.2V100h-2.5
		c-1,0-1.6,0.1-2,0.2c-0.5,0.2-1,0.6-1.3,1.1s-0.6,1.3-0.7,2.2h-0.6l0.2-4.8H402.5z"/>
	<path class="st5" d="M418.2,98.7h7.1v0.6H425c-0.3,0-0.6,0.1-1.1,0.3c-0.5,0.2-1,0.6-1.4,1c-0.4,0.4-0.9,1.1-1.5,2.1l-4.9,7.8v5.1
		c0,1.3,0.1,2,0.4,2.4c0.4,0.4,1,0.6,1.8,0.6h0.7v0.6h-8.7v-0.6h0.7c0.9,0,1.5-0.3,1.8-0.8c0.2-0.3,0.3-1.1,0.3-2.2v-4.8l-5.6-8.6
		c-0.7-1-1.1-1.6-1.4-1.9c-0.2-0.3-0.7-0.6-1.5-0.9c-0.2-0.1-0.5-0.2-0.9-0.2v-0.6h8.8v0.6h-0.5c-0.5,0-0.9,0.1-1.3,0.3
		c-0.4,0.2-0.6,0.6-0.6,1c0,0.4,0.3,1,0.9,2l4.3,6.6l4-6.3c0.6-0.9,0.9-1.7,0.9-2.1c0-0.3-0.1-0.5-0.2-0.8c-0.1-0.2-0.4-0.4-0.6-0.5
		c-0.3-0.1-0.7-0.2-1.2-0.2V98.7z"/>
	<path class="st5" d="M423.5,124.3v-0.7c1-0.3,1.8-0.9,2.4-1.6c0.6-0.7,0.9-1.5,0.9-2.3c0-0.2,0-0.4-0.1-0.5
		c-0.1-0.1-0.1-0.1-0.2-0.1c-0.1,0-0.4,0.1-0.7,0.3c-0.2,0.1-0.4,0.1-0.6,0.1c-0.5,0-0.9-0.1-1.2-0.4c-0.3-0.3-0.4-0.7-0.4-1.2
		c0-0.5,0.2-0.9,0.6-1.3c0.4-0.4,0.8-0.5,1.4-0.5c0.7,0,1.3,0.3,1.8,0.9s0.8,1.3,0.8,2.3c0,1-0.4,2-1.1,2.9
		C426.2,123.1,425.1,123.8,423.5,124.3z"/>
	<path class="st5" d="M443.8,99.8v8.1h4.5c1.2,0,1.9-0.2,2.3-0.5c0.5-0.5,0.8-1.3,0.9-2.4h0.6v7.1h-0.6c-0.1-1-0.3-1.6-0.4-1.9
		c-0.2-0.4-0.5-0.6-0.9-0.8c-0.4-0.2-1-0.3-1.9-0.3h-4.5v6.8c0,0.9,0,1.5,0.1,1.7c0.1,0.2,0.2,0.4,0.4,0.5c0.2,0.1,0.6,0.2,1.1,0.2
		h3.5c1.2,0,2-0.1,2.5-0.2s1-0.5,1.5-1c0.6-0.6,1.3-1.6,1.9-2.8h0.6l-1.8,5.1h-15.8v-0.6h0.7c0.5,0,0.9-0.1,1.4-0.3
		c0.3-0.2,0.5-0.4,0.7-0.7c0.1-0.3,0.2-1,0.2-2v-13.3c0-1.3-0.1-2.1-0.4-2.4c-0.4-0.4-1-0.6-1.8-0.6h-0.7v-0.6h15.8l0.2,4.5h-0.6
		c-0.2-1.1-0.4-1.8-0.7-2.2c-0.3-0.4-0.6-0.7-1.1-0.9c-0.4-0.2-1.1-0.2-2.1-0.2H443.8z"/>
	<path class="st5" d="M455.8,98.7h5.6l12.5,15.4v-11.8c0-1.3-0.1-2-0.4-2.4c-0.4-0.4-1-0.6-1.8-0.6H471v-0.6h7.1v0.6h-0.7
		c-0.9,0-1.5,0.3-1.8,0.8c-0.2,0.3-0.3,1.1-0.3,2.2v17.3h-0.5L461.2,103v12.6c0,1.3,0.1,2,0.4,2.4c0.4,0.4,1,0.6,1.8,0.6h0.7v0.6
		h-7.1v-0.6h0.7c0.9,0,1.5-0.3,1.9-0.8c0.2-0.3,0.3-1.1,0.3-2.2v-14.2c-0.6-0.7-1-1.2-1.4-1.4c-0.3-0.2-0.8-0.4-1.4-0.6
		c-0.3-0.1-0.7-0.1-1.3-0.1V98.7z"/>
	<path class="st5" d="M484.9,108.2h9.5v-5.9c0-1-0.1-1.7-0.2-2.1c-0.1-0.3-0.3-0.5-0.6-0.6c-0.4-0.2-0.9-0.4-1.4-0.4h-0.7v-0.6h8.8
		v0.6h-0.7c-0.5,0-0.9,0.1-1.4,0.3c-0.3,0.2-0.5,0.4-0.7,0.7c-0.1,0.3-0.2,1-0.2,2v13.2c0,1,0.1,1.7,0.2,2.1
		c0.1,0.3,0.3,0.5,0.6,0.6c0.4,0.2,0.9,0.4,1.4,0.4h0.7v0.6h-8.8v-0.6h0.7c0.8,0,1.4-0.2,1.8-0.7c0.3-0.3,0.4-1.1,0.4-2.3v-6.2h-9.5
		v6.2c0,1,0.1,1.7,0.2,2.1c0.1,0.3,0.3,0.5,0.6,0.6c0.4,0.2,0.9,0.4,1.4,0.4h0.7v0.6h-8.8v-0.6h0.7c0.8,0,1.5-0.2,1.8-0.7
		c0.2-0.3,0.4-1.1,0.4-2.3v-13.2c0-1-0.1-1.7-0.2-2.1c-0.1-0.3-0.3-0.5-0.6-0.6c-0.4-0.2-0.9-0.4-1.4-0.4h-0.7v-0.6h8.8v0.6h-0.7
		c-0.5,0-0.9,0.1-1.4,0.3c-0.3,0.2-0.5,0.4-0.6,0.7c-0.1,0.3-0.2,1-0.2,2V108.2z"/>
	<path class="st5" d="M515,112.3h-7.9l-1.4,3.2c-0.3,0.8-0.5,1.4-0.5,1.8c0,0.3,0.1,0.6,0.4,0.8s0.9,0.4,1.9,0.5v0.6h-6.4v-0.6
		c0.9-0.2,1.4-0.3,1.7-0.6c0.5-0.5,1.1-1.5,1.7-2.9l7.2-16.9h0.5l7.1,17c0.6,1.4,1.1,2.3,1.6,2.7c0.5,0.4,1.1,0.6,2,0.7v0.6h-8.1
		v-0.6c0.8,0,1.4-0.2,1.7-0.4c0.3-0.2,0.4-0.5,0.4-0.8c0-0.4-0.2-1.1-0.6-2.1L515,112.3z M514.6,111.2l-3.5-8.3l-3.6,8.3H514.6z"/>
	<path class="st5" d="M522.8,98.7h5.6l12.5,15.4v-11.8c0-1.3-0.1-2-0.4-2.4c-0.4-0.4-1-0.6-1.8-0.6H538v-0.6h7.1v0.6h-0.7
		c-0.9,0-1.5,0.3-1.8,0.8c-0.2,0.3-0.3,1.1-0.3,2.2v17.3h-0.5L528.2,103v12.6c0,1.3,0.1,2,0.4,2.4c0.4,0.4,1,0.6,1.8,0.6h0.7v0.6
		h-7.1v-0.6h0.7c0.9,0,1.5-0.3,1.9-0.8c0.2-0.3,0.3-1.1,0.3-2.2v-14.2c-0.6-0.7-1-1.2-1.4-1.4c-0.3-0.2-0.8-0.4-1.4-0.6
		c-0.3-0.1-0.7-0.1-1.3-0.1V98.7z"/>
	<path class="st5" d="M564.2,98.2l0.5,7h-0.5c-0.6-2.1-1.5-3.6-2.7-4.5c-1.2-0.9-2.5-1.4-4.2-1.4c-1.4,0-2.6,0.3-3.7,1
		c-1.1,0.7-2,1.8-2.6,3.3c-0.6,1.5-0.9,3.4-0.9,5.6c0,1.9,0.3,3.5,0.9,4.8s1.5,2.4,2.7,3.1s2.6,1.1,4.1,1.1c1.3,0,2.5-0.3,3.5-0.9
		c1-0.6,2.1-1.7,3.4-3.4l0.5,0.3c-1,1.8-2.2,3.2-3.6,4s-3,1.3-4.9,1.3c-3.4,0-6-1.3-7.9-3.8c-1.4-1.9-2.1-4.1-2.1-6.6
		c0-2,0.5-3.9,1.4-5.6c0.9-1.7,2.2-3,3.8-4c1.6-0.9,3.4-1.4,5.3-1.4c1.5,0,2.9,0.4,4.4,1.1c0.4,0.2,0.7,0.3,0.9,0.3
		c0.3,0,0.5-0.1,0.7-0.3c0.3-0.3,0.4-0.7,0.6-1.1H564.2z"/>
	<path class="st5" d="M572.6,99.8v8.1h4.5c1.2,0,1.9-0.2,2.3-0.5c0.5-0.5,0.8-1.3,0.9-2.4h0.6v7.1h-0.6c-0.1-1-0.3-1.6-0.4-1.9
		c-0.2-0.4-0.5-0.6-0.9-0.8c-0.4-0.2-1-0.3-1.9-0.3h-4.5v6.8c0,0.9,0,1.5,0.1,1.7c0.1,0.2,0.2,0.4,0.4,0.5c0.2,0.1,0.6,0.2,1.1,0.2
		h3.5c1.2,0,2-0.1,2.5-0.2s1-0.5,1.5-1c0.6-0.6,1.3-1.6,1.9-2.8h0.6l-1.8,5.1h-15.8v-0.6h0.7c0.5,0,0.9-0.1,1.4-0.3
		c0.3-0.2,0.5-0.4,0.7-0.7c0.1-0.3,0.2-1,0.2-2v-13.3c0-1.3-0.1-2.1-0.4-2.4c-0.4-0.4-1-0.6-1.8-0.6h-0.7v-0.6h15.8l0.2,4.5h-0.6
		c-0.2-1.1-0.4-1.8-0.7-2.2c-0.3-0.4-0.6-0.7-1.1-0.9c-0.4-0.2-1.1-0.2-2.1-0.2H572.6z"/>
	<path class="st5" d="M611.4,98.2l0.5,7h-0.5c-0.6-2.1-1.5-3.6-2.7-4.5c-1.2-0.9-2.5-1.4-4.2-1.4c-1.4,0-2.6,0.3-3.7,1
		c-1.1,0.7-2,1.8-2.6,3.3c-0.6,1.5-0.9,3.4-0.9,5.6c0,1.9,0.3,3.5,0.9,4.8s1.5,2.4,2.7,3.1s2.6,1.1,4.1,1.1c1.3,0,2.5-0.3,3.5-0.9
		c1-0.6,2.1-1.7,3.4-3.4l0.5,0.3c-1,1.8-2.2,3.2-3.6,4s-3,1.3-4.9,1.3c-3.4,0-6-1.3-7.9-3.8c-1.4-1.9-2.1-4.1-2.1-6.6
		c0-2,0.5-3.9,1.4-5.6c0.9-1.7,2.2-3,3.8-4c1.6-0.9,3.4-1.4,5.3-1.4c1.5,0,2.9,0.4,4.4,1.1c0.4,0.2,0.7,0.3,0.9,0.3
		c0.3,0,0.5-0.1,0.7-0.3c0.3-0.3,0.4-0.7,0.6-1.1H611.4z"/>
	<path class="st5" d="M627.6,112.3h-7.9l-1.4,3.2c-0.3,0.8-0.5,1.4-0.5,1.8c0,0.3,0.1,0.6,0.4,0.8s0.9,0.4,1.9,0.5v0.6h-6.4v-0.6
		c0.9-0.2,1.4-0.3,1.7-0.6c0.5-0.5,1.1-1.5,1.7-2.9l7.2-16.9h0.5l7.1,17c0.6,1.4,1.1,2.3,1.6,2.7c0.5,0.4,1.1,0.6,2,0.7v0.6h-8.1
		v-0.6c0.8,0,1.4-0.2,1.7-0.4c0.3-0.2,0.4-0.5,0.4-0.8c0-0.4-0.2-1.1-0.6-2.1L627.6,112.3z M627.2,111.2l-3.5-8.3l-3.6,8.3H627.2z"
		/>
	<path class="st5" d="M642.1,109.6v6c0,1.3,0.1,2.1,0.4,2.4c0.4,0.4,1,0.7,1.7,0.7h0.8v0.6h-8.8v-0.6h0.8c0.9,0,1.5-0.3,1.9-0.8
		c0.2-0.3,0.3-1.1,0.3-2.2v-13.2c0-1.3-0.1-2.1-0.4-2.4c-0.4-0.4-1-0.7-1.8-0.7h-0.8v-0.6h7.5c1.8,0,3.3,0.2,4.3,0.6
		c1.1,0.4,1.9,1,2.7,1.9c0.7,0.9,1.1,2,1.1,3.2c0,1.7-0.6,3-1.7,4.1c-1.1,1-2.7,1.6-4.7,1.6c-0.5,0-1,0-1.6-0.1
		C643.4,109.8,642.8,109.7,642.1,109.6z M642.1,108.7c0.5,0.1,1,0.2,1.4,0.2c0.4,0.1,0.8,0.1,1.1,0.1c1,0,2-0.4,2.7-1.2
		c0.8-0.8,1.1-1.9,1.1-3.1c0-0.9-0.2-1.7-0.5-2.5c-0.4-0.8-0.9-1.3-1.5-1.7c-0.7-0.4-1.4-0.6-2.3-0.6c-0.5,0-1.2,0.1-2,0.3V108.7z"
		/>
	<path class="st5" d="M664.3,112.3h-7.9l-1.4,3.2c-0.3,0.8-0.5,1.4-0.5,1.8c0,0.3,0.1,0.6,0.4,0.8s0.9,0.4,1.9,0.5v0.6h-6.4v-0.6
		c0.9-0.2,1.4-0.3,1.7-0.6c0.5-0.5,1.1-1.5,1.7-2.9l7.2-16.9h0.5l7.1,17c0.6,1.4,1.1,2.3,1.6,2.7c0.5,0.4,1.1,0.6,2,0.7v0.6H664
		v-0.6c0.8,0,1.4-0.2,1.7-0.4c0.3-0.2,0.4-0.5,0.4-0.8c0-0.4-0.2-1.1-0.6-2.1L664.3,112.3z M663.9,111.2l-3.5-8.3l-3.6,8.3H663.9z"
		/>
	<path class="st5" d="M686.8,108.7c1.4,0.3,2.5,0.8,3.2,1.5c1,0.9,1.5,2.1,1.5,3.4c0,1-0.3,2-1,2.9c-0.6,0.9-1.5,1.6-2.7,2
		c-1.1,0.4-2.8,0.6-5.1,0.6H673v-0.6h0.8c0.9,0,1.5-0.3,1.8-0.8c0.2-0.4,0.3-1.1,0.3-2.3v-13.2c0-1.3-0.1-2.1-0.4-2.4
		c-0.4-0.4-1-0.7-1.8-0.7H673v-0.6h8.8c1.7,0,3,0.1,4,0.4c1.5,0.4,2.7,1,3.5,1.9c0.8,0.9,1.2,2,1.2,3.2c0,1-0.3,1.9-0.9,2.8
		S688,108.3,686.8,108.7z M678.8,107.9c0.4,0.1,0.8,0.1,1.3,0.2c0.5,0,1,0.1,1.6,0.1c1.5,0,2.6-0.2,3.3-0.5s1.3-0.8,1.7-1.5
		s0.6-1.4,0.6-2.1c0-1.2-0.5-2.2-1.5-3.1s-2.4-1.3-4.3-1.3c-1,0-1.9,0.1-2.7,0.3V107.9z M678.8,117.7c1.2,0.3,2.3,0.4,3.5,0.4
		c1.8,0,3.2-0.4,4.2-1.2c1-0.8,1.4-1.8,1.4-3c0-0.8-0.2-1.6-0.6-2.3c-0.4-0.7-1.1-1.3-2.1-1.7s-2.2-0.6-3.6-0.6c-0.6,0-1.2,0-1.6,0
		c-0.4,0-0.8,0.1-1.1,0.1V117.7z"/>
	<path class="st5" d="M702.7,118.6v0.6h-8.8v-0.6h0.7c0.8,0,1.5-0.2,1.8-0.7c0.2-0.3,0.4-1.1,0.4-2.3v-13.2c0-1-0.1-1.7-0.2-2.1
		c-0.1-0.3-0.3-0.5-0.6-0.6c-0.4-0.2-0.9-0.4-1.4-0.4h-0.7v-0.6h8.8v0.6h-0.7c-0.8,0-1.4,0.2-1.8,0.7c-0.3,0.3-0.4,1.1-0.4,2.3v13.2
		c0,1,0.1,1.7,0.2,2.1c0.1,0.3,0.3,0.5,0.6,0.6c0.4,0.2,0.9,0.4,1.4,0.4H702.7z"/>
	<path class="st5" d="M721.1,113.5l0.5,0.1l-1.8,5.6H704v-0.6h0.8c0.9,0,1.5-0.3,1.9-0.8c0.2-0.3,0.3-1.1,0.3-2.2v-13.2
		c0-1.3-0.1-2.1-0.4-2.4c-0.4-0.4-1-0.7-1.8-0.7H704v-0.6h9.3v0.6c-1.1,0-1.9,0.1-2.3,0.3c-0.4,0.2-0.7,0.5-0.9,0.8
		c-0.2,0.3-0.2,1.1-0.2,2.3v12.9c0,0.8,0.1,1.4,0.2,1.7c0.1,0.2,0.3,0.4,0.6,0.5c0.3,0.1,1,0.2,2.4,0.2h1.5c1.6,0,2.7-0.1,3.3-0.3
		c0.6-0.2,1.2-0.6,1.7-1.2S720.6,114.8,721.1,113.5z"/>
	<path class="st5" d="M731.8,118.6v0.6h-8.8v-0.6h0.7c0.8,0,1.5-0.2,1.8-0.7c0.2-0.3,0.4-1.1,0.4-2.3v-13.2c0-1-0.1-1.7-0.2-2.1
		c-0.1-0.3-0.3-0.5-0.6-0.6c-0.4-0.2-0.9-0.4-1.4-0.4h-0.7v-0.6h8.8v0.6h-0.7c-0.8,0-1.4,0.2-1.8,0.7c-0.3,0.3-0.4,1.1-0.4,2.3v13.2
		c0,1,0.1,1.7,0.2,2.1c0.1,0.3,0.3,0.5,0.6,0.6c0.4,0.2,0.9,0.4,1.4,0.4H731.8z"/>
	<path class="st5" d="M750.5,98.7l0.2,4.8h-0.6c-0.1-0.8-0.3-1.5-0.5-1.8c-0.3-0.6-0.7-1-1.2-1.3s-1.2-0.4-2-0.4h-2.9v15.6
		c0,1.3,0.1,2,0.4,2.4c0.4,0.4,1,0.6,1.8,0.6h0.7v0.6h-8.7v-0.6h0.7c0.9,0,1.5-0.3,1.8-0.8c0.2-0.3,0.3-1.1,0.3-2.2V100h-2.5
		c-1,0-1.6,0.1-2,0.2c-0.5,0.2-1,0.6-1.3,1.1c-0.4,0.5-0.6,1.3-0.7,2.2h-0.6l0.2-4.8H750.5z"/>
	<path class="st5" d="M766.2,98.7h7.1v0.6H773c-0.3,0-0.6,0.1-1.1,0.3c-0.5,0.2-1,0.6-1.4,1c-0.4,0.4-0.9,1.1-1.5,2.1l-4.9,7.8v5.1
		c0,1.3,0.1,2,0.4,2.4c0.4,0.4,1,0.6,1.8,0.6h0.7v0.6h-8.7v-0.6h0.7c0.9,0,1.5-0.3,1.8-0.8c0.2-0.3,0.3-1.1,0.3-2.2v-4.8l-5.6-8.6
		c-0.7-1-1.1-1.6-1.4-1.9c-0.2-0.3-0.7-0.6-1.5-0.9c-0.2-0.1-0.5-0.2-0.9-0.2v-0.6h8.8v0.6h-0.5c-0.5,0-0.9,0.1-1.3,0.3
		c-0.4,0.2-0.6,0.6-0.6,1c0,0.4,0.3,1,0.9,2l4.3,6.6l4-6.3c0.6-0.9,0.9-1.7,0.9-2.1c0-0.3-0.1-0.5-0.2-0.8c-0.1-0.2-0.4-0.4-0.6-0.5
		c-0.3-0.1-0.7-0.2-1.2-0.2V98.7z"/>
</g>
</svg>
