<?xml version="1.0" encoding="utf-8"?>
<!-- Generator: Adobe Illustrator 26.0.3, SVG Export Plug-In . SVG Version: 6.00 Build 0)  -->
<svg version="1.1" id="Layer_1" xmlns="http://www.w3.org/2000/svg" xmlns:xlink="http://www.w3.org/1999/xlink" x="0px" y="0px"
	 viewBox="0 0 781.5 146.1" style="enable-background:new 0 0 781.5 146.1;" xml:space="preserve">
<style type="text/css">
	.st0{fill-rule:evenodd;clip-rule:evenodd;fill:#18AE4B;}
	.st1{fill-rule:evenodd;clip-rule:evenodd;fill:#E6B74E;}
	.st2{fill-rule:evenodd;clip-rule:evenodd;fill:#58BA52;}
	.st3{enable-background:new    ;}
	.st4{fill:#18AE4B;}
</style>
<path class="st0" d="M82.1,113.4c10-7.7,19.7-17.9,22-30.2c2.3-13.5-5.6-25.6-14.6-34.5L59.1,18.6L29,48.8
	c-9.2,9.2-17.1,21-14.6,34.5c2,12,12,22.5,22,30.2V93l0,0v-3.6v-1.3l0,0v-1.5c0-2.8-3.6-1.5-3.3-3.3h3.3h1h3.8
	c2.8,0,4.9,2.3,4.9,4.9v1.3v42.7l-7.7-4.9c-14.8-9.7-30.7-23.8-33.7-41.9c-3.1-16.9,5.9-31.7,17.4-43.2L59.1,5.1l37.1,37.1
	c11.5,11.5,20.4,26.3,17.4,43.2c-3.3,18.1-18.9,32.2-33.7,41.9l-7.4,4.9V83l0,0v-1v-3.8l0,0l0,0c0-2.8,2.3-4.9,4.9-4.9h3.8h1h3.3
	c0.3,1.8-3.3,0.5-3.3,3.3V83L82.1,113.4L82.1,113.4z M54.3,141.6h4.9c2.8,0,4.9-2.3,4.9-4.9v-4.9V66.1v-4.9c0-2.8-2.3-4.9-4.9-4.9
	h-3.8h-1H51c-0.3,1.8,3.3,0.5,3.3,3.3v1.5v4.9v65.7v4.9V141.6L54.3,141.6z M77.3,61.8c-2.8,0-4.9,2.3-4.9,4.9c0,2.6,2.3,4.9,4.9,4.9
	c2.8,0,4.9-2.3,4.9-4.9C82.1,64.1,80.1,61.8,77.3,61.8L77.3,61.8z M59.1,45.2c2.8,0,4.9,2.3,4.9,4.9c0,2.8-2.3,4.9-4.9,4.9
	c-2.6,0-4.9-2.3-4.9-4.9C54.3,47.5,56.6,45.2,59.1,45.2L59.1,45.2z M41.3,72c2.8,0,4.9,2.3,4.9,4.9c0,2.8-2.3,4.9-4.9,4.9
	c-2.8,0-4.9-2.3-4.9-4.9C36.1,74.3,38.4,72,41.3,72L41.3,72z"/>
<path class="st1" d="M41,72c-2.6,0-4.9,2.3-4.9,4.9c0,2.8,2.3,4.9,4.9,4.9c2.8,0,4.9-2.3,4.9-4.9C46.1,74.3,43.8,72,41,72z
	 M59.1,45.2c-2.6,0-4.9,2.3-4.9,4.9c0,2.8,2.3,4.9,4.9,4.9c2.8,0,4.9-2,4.9-4.9C64,47.5,62,45.2,59.1,45.2z M77.3,61.8
	c-2.8,0-4.9,2.3-4.9,4.9c0,2.8,2.3,4.9,4.9,4.9c2.6,0,4.9-2,4.9-4.9C82.1,64.1,80.1,61.8,77.3,61.8z M59.1,56.4H51
	c-0.3,1.8,3.3,0.5,3.3,3.3v37.1c1.5,0,3.3,0,4.9,0c1.5,0,3.3,0,4.9,0V61.3C64,58.5,62,56.4,59.1,56.4z M77.3,73
	c-1.3,0-2.6,0.5-3.3,1.5c-1,1-1.5,2-1.5,3.6l0,0V82v1v13.3c3.3-0.5,6.6-1,9.7-1.5v-12v-6.4c0-2.8,3.6-1.5,3.3-3.3
	C85.5,73,77.3,73,77.3,73z M41,83.3h-8.2c-0.3,1.8,3.3,0.5,3.3,3.3v8.2c3.1,0.8,6.4,1.3,9.7,1.5v-7.9C46.1,85.3,43.8,83.3,41,83.3z"
	/>
<path class="st2" d="M114.1,82.3c-3.6,2-7.4,4.1-11.2,5.9c0.5-1.5,1-3.1,1.3-4.6C106.4,70,98.5,58,89.6,49L59.1,18.6L29,48.8
	c-9.2,9.2-17.1,21-14.6,34.5c0.3,1.5,0.8,3.1,1.3,4.6C11.9,86.1,8,84.3,4.4,82c-1.5-15.6,6.9-29.4,17.9-40.4L59.4,4.5l37.1,37.1
	C107.2,52.9,115.6,66.7,114.1,82.3z"/>
<g class="st3">
	<path class="st4" d="M157,102.4v5.6h3.1c0.8,0,1.3,0,1.5-0.3c0.3-0.3,0.5-1,0.5-1.8h0.5v5.1h-0.3c0-0.8-0.3-1-0.3-1.3
		s-0.3-0.5-0.5-0.5c-0.3-0.3-0.8-0.3-1.3-0.3h-3.1v4.6c0,0.5,0,1,0,1.3c0,0.3,0,0,0,0.3c0.3,0,0.5,0,0.8,0h2.6c0.8,0,1.3,0,1.8-0.3
		c0.3,0,0.8-0.3,1-0.8c0.5-0.5,0.8-1,1.3-2h0.5l-1.3,3.6h-11v-0.5h0.5c0.3,0,0.8,0,1-0.3c0.3,0,0.3-0.3,0.5-0.5c0-0.3,0-0.8,0-1.3
		V104c0-1,0-1.5-0.3-1.8c-0.3-0.3-0.8-0.5-1.3-0.5h-0.5v-0.5h11l0.3,3.1h-0.5c-0.3-0.8-0.3-1.3-0.5-1.5c-0.3-0.3-0.5-0.5-0.8-0.8
		c-0.3,0-0.8-0.3-1.5-0.3H157V102.4z"/>
	<path class="st4" d="M174.4,108.1l3.1,4.6c0.8,1.3,1.5,2,1.8,2.3c0.5,0.3,1,0.5,1.5,0.5v0.5h-6.1v-0.5c0.5,0,0.8,0,1,0
		c0.3,0,0.3-0.3,0.3-0.3s0.3-0.3,0.3-0.5c0-0.3,0-0.3,0-0.5c0,0-0.3-0.5-0.5-1l-2.6-3.6l-3.1,3.8c-0.3,0.5-0.5,0.8-0.5,0.8
		s0,0.3,0,0.5c0,0.3,0,0.5,0.3,0.5c0.3,0.3,0.5,0.3,1,0.3v0.5h-5.1v-0.5c0.3,0,0.8,0,1-0.3c0.5-0.3,0.8-0.5,1.3-0.8s0.8-0.8,1.3-1.5
		l3.3-4.3l-2.8-4.1c-0.8-1-1.5-1.8-2-2.3c-0.5-0.5-1.3-0.5-1.8-0.5v-0.5h6.6v0.5c-0.5,0-1,0-1.3,0.3c-0.3,0.3-0.3,0.3-0.3,0.5
		c0,0.3,0.3,0.8,0.5,1l2.3,3.3l2.6-3.3c0.3-0.3,0.5-0.8,0.5-0.8c0-0.3,0-0.3,0-0.5s0-0.3,0-0.5c0-0.3-0.3-0.3-0.5-0.3s-0.5,0-1,0
		v-0.5h5.1v0.5c-0.5,0-0.8,0-1,0.3c-0.3,0.3-0.8,0.3-1,0.8c-0.3,0.5-0.8,0.8-1.3,1.5L174.4,108.1z"/>
	<path class="st4" d="M193.8,101.7l0.3,3.3h-0.5c0-0.5-0.3-1-0.3-1.3c-0.3-0.5-0.5-0.8-0.8-1c-0.3-0.3-0.8-0.3-1.5-0.3h-2v11
		c0,0.8,0,1.5,0.3,1.5c0.3,0.3,0.8,0.5,1.3,0.5h0.5v0.5h-6.1v-0.5h0.5c0.5,0,1-0.3,1.3-0.5c0.3-0.3,0.3-0.8,0.3-1.5v-11h-1.8
		c-0.8,0-1,0-1.5,0.3c-0.3,0.3-0.8,0.5-1,0.8c-0.3,0.3-0.5,1-0.5,1.5h-0.5l0.3-3.3C181.8,101.7,193.8,101.7,193.8,101.7z"/>
	<path class="st4" d="M199,102.4v5.6h3.1c0.8,0,1.3,0,1.5-0.3c0.3-0.3,0.5-1,0.5-1.8h0.5v5.1h-0.5c0-0.8-0.3-1-0.3-1.3
		s-0.3-0.5-0.5-0.5c-0.3-0.3-0.8-0.3-1.3-0.3H199v4.6c0,0.5,0,1,0,1.3c0,0.3,0.3,0.3,0.3,0.3c0.3,0,0.5,0,0.8,0h2.6
		c0.8,0,1.3,0,1.8-0.3c0.3,0,0.8-0.3,1-0.8c0.5-0.5,0.8-1,1.3-2h0.5l-1.3,3.6h-11v-0.5h0.5c0.3,0,0.8,0,1-0.3c0.3,0,0.3-0.3,0.5-0.5
		c0-0.3,0-0.8,0-1.3V104c0-1,0-1.5-0.3-1.8c-0.3-0.3-0.8-0.5-1.3-0.5h-0.5v-0.5h11l0.3,3.1h-0.3c-0.3-0.8-0.3-1.3-0.5-1.5
		c-0.3-0.3-0.5-0.5-0.8-0.8c-0.3,0-0.8-0.3-1.5-0.3H199V102.4z"/>
	<path class="st4" d="M207.4,101.7h3.8l8.7,10.7v-8.2c0-0.8,0-1.5-0.3-1.5c-0.3-0.3-0.8-0.5-1.3-0.5h-0.5v-0.5h5.1v0.5h-0.5
		c-0.5,0-1,0.3-1.3,0.5c-0.3,0.3-0.3,0.8-0.3,1.5v12h-0.3l-9.5-11.5v8.9c0,0.8,0,1.5,0.3,1.5c0.3,0.3,0.8,0.5,1.3,0.5h0.5v0.5h-5.1
		v-0.5h0.5c0.5,0,1-0.3,1.3-0.5c0.3-0.3,0.3-0.8,0.3-1.5v-10c-0.5-0.5-0.8-0.8-1-1c-0.3-0.3-0.5-0.3-1-0.5c-0.3,0-0.5,0-1,0v-0.5
		H207.4z"/>
	<path class="st4" d="M223.7,116v-0.5h0.5c0.5,0,1-0.3,1.3-0.5c0.3-0.3,0.3-0.8,0.3-1.5v-9.2c0-1,0-1.5-0.3-1.8
		c-0.3-0.3-0.8-0.5-1.3-0.5h-0.5v-0.5h5.9c2,0,3.8,0.3,4.9,0.8c1,0.5,2,1.3,2.8,2.6c0.8,1,1,2.6,1,3.8c0,2-0.5,3.6-1.8,5.1
		s-3.3,2.3-6.1,2.3H223.7z M227.8,115c1,0.3,1.5,0.3,2.3,0.3c1.5,0,3.1-0.5,4.1-1.8c1-1.3,1.5-2.8,1.5-4.6c0-2-0.5-3.6-1.5-4.6
		c-1-1-2.6-1.8-4.1-1.8c-0.5,0-1.3,0-2,0.3V115H227.8z"/>
	<path class="st4" d="M257.5,101.4l0.3,4.9h-0.3c-0.5-1.5-1-2.6-1.8-3.1c-0.8-0.8-1.8-1-2.8-1c-1,0-1.8,0.3-2.6,0.8
		c-0.8,0.5-1.3,1.3-1.8,2.3s-0.8,2.3-0.8,3.8c0,1.3,0.3,2.3,0.5,3.3c0.5,1,1,1.8,1.8,2.3c0.8,0.5,1.8,0.8,2.8,0.8
		c1,0,1.8-0.3,2.6-0.5c0.8-0.5,1.5-1.3,2.3-2.3l0.3,0.3c-0.8,1.3-1.5,2.3-2.6,2.8c-1,0.5-2,0.8-3.3,0.8c-2.3,0-4.1-0.8-5.6-2.6
		c-1-1.3-1.5-2.8-1.5-4.6c0-1.5,0.3-2.8,1-3.8c0.8-1.3,1.5-2,2.6-2.8c1-0.8,2.3-1,3.6-1c1,0,2,0.3,3.1,0.8c0.3,0.3,0.5,0.3,0.5,0.3
		c0.3,0,0.3,0,0.5-0.3c0.3-0.3,0.3-0.5,0.5-0.8h0.8V101.4z"/>
	<path class="st4" d="M268.7,111.1h-5.6l-1,2.3c-0.3,0.5-0.3,1-0.3,1.3s0,0.5,0.3,0.5c0.3,0.3,0.8,0.3,1.3,0.3v0.5h-4.6v-0.5
		c0.5,0,1-0.3,1.3-0.5c0.3-0.3,0.8-1,1.3-2l5.1-11.8h0.3l5.1,12c0.5,1,0.8,1.5,1,1.8c0.3,0.3,0.8,0.5,1.3,0.5v0.5h-5.6v-0.5
		c0.5,0,1,0,1.3-0.3c0.3-0.3,0.3-0.3,0.3-0.5c0-0.3-0.3-0.8-0.5-1.5L268.7,111.1z M268.5,110.4l-2.6-5.9l-2.6,5.9H268.5z"/>
	<path class="st4" d="M279,109.3v4.1c0,1,0,1.5,0.3,1.8c0.3,0.3,0.8,0.5,1.3,0.5h0.5v0.5h-6.1v-0.5h0.5c0.5,0,1-0.3,1.3-0.5
		s0.3-0.8,0.3-1.5v-9.2c0-1,0-1.5-0.3-1.8c-0.3-0.3-0.8-0.5-1.3-0.5h-0.5v-0.5h5.4c1.3,0,2.3,0.3,3.1,0.5c0.8,0.3,1.3,0.8,1.8,1.3
		c0.5,0.5,0.8,1.3,0.8,2.3c0,1.3-0.5,2-1.3,2.8c-0.8,0.8-1.8,1-3.3,1c-0.3,0-0.8,0-1,0C280,109.6,279.5,109.3,279,109.3z M279,108.6
		c0.3,0,0.8,0,1,0.3c0.3,0.3,0.5,0,0.8,0c0.8,0,1.3-0.3,1.8-0.8c0.5-0.5,0.8-1.3,0.8-2.3c0-0.5,0-1.3-0.3-1.8c-0.3-0.5-0.5-1-1-1.3
		s-1-0.5-1.5-0.5c-0.3,0-0.8,0-1.3,0.3v6.1H279z"/>
	<path class="st4" d="M294.5,111.1h-5.6l-1,2.3c-0.3,0.5-0.3,1-0.3,1.3s0,0.5,0.3,0.5c0.3,0.3,0.8,0.3,1.3,0.3v0.5h-4.6v-0.5
		c0.5,0,1-0.3,1.3-0.5c0.3-0.3,0.8-1,1.3-2l5.1-11.8h0.3l5.1,12c0.5,1,0.8,1.5,1,1.8c0.3,0.3,0.8,0.5,1.3,0.5v0.5h-5.6v-0.5
		c0.5,0,1,0,1.3-0.3s0.3-0.3,0.3-0.5c0-0.3-0.3-0.8-0.5-1.5L294.5,111.1z M294.3,110.4l-2.6-5.9l-2.6,5.9H294.3z"/>
	<path class="st4" d="M313.2,101.4l0.3,4.9h-0.3c-0.5-1.5-1-2.6-1.8-3.1c-0.8-0.8-1.8-1-2.8-1c-1,0-1.8,0.3-2.6,0.8
		c-0.8,0.5-1.3,1.3-1.8,2.3c-0.5,1-0.8,2.3-0.8,3.8c0,1.3,0.3,2.3,0.5,3.3c0.5,1,1,1.8,1.8,2.3c0.8,0.5,1.8,0.8,2.8,0.8
		s1.8-0.3,2.6-0.5c0.8-0.5,1.5-1.3,2.3-2.3l0.3,0.3c-0.8,1.3-1.5,2.3-2.6,2.8c-1,0.5-2,0.8-3.3,0.8c-2.3,0-4.1-0.8-5.6-2.6
		c-1-1.3-1.5-2.8-1.5-4.6c0-1.5,0.3-2.8,1-3.8c0.8-1.3,1.5-2,2.6-2.8c1-0.8,2.3-1,3.6-1c1,0,2,0.3,3.1,0.8c0.3,0.3,0.5,0.3,0.5,0.3
		c0.3,0,0.3,0,0.5-0.3c0.3-0.3,0.3-0.5,0.5-0.8h0.8V101.4z"/>
	<path class="st4" d="M321.4,115.7v0.5h-6.1v-0.5h0.5c0.5,0,1-0.3,1.3-0.5s0.3-0.8,0.3-1.5v-9.2c0-0.8,0-1.3-0.3-1.5
		c0-0.3-0.3-0.3-0.5-0.5c-0.3-0.3-0.5-0.3-1-0.3H315v-0.5h6.1v0.5h-0.3c-0.5,0-1,0.3-1.3,0.5c-0.3,0.3-0.3,0.8-0.3,1.5v9.2
		c0,0.8,0,1.3,0.3,1.5c0,0.3,0.3,0.3,0.5,0.5c0.3,0.3,0.5,0.3,1,0.3H321.4z"/>
	<path class="st4" d="M334.4,101.7l0.3,3.3h-0.5c0-0.5-0.3-1-0.3-1.3c-0.3-0.5-0.5-0.8-0.8-1c-0.3-0.3-0.8-0.3-1.5-0.3h-2v11
		c0,0.8,0,1.5,0.3,1.5c0.3,0.3,0.8,0.5,1.3,0.5h0.5v0.5h-6.1v-0.5h0.5c0.5,0,1-0.3,1.3-0.5c0.3-0.3,0.3-0.8,0.3-1.5v-11h-1.8
		c-0.8,0-1,0-1.5,0.3c-0.3,0.3-0.8,0.5-1,0.8c-0.3,0.3-0.5,1-0.5,1.5h-0.5l0.3-3.3C322.4,101.7,334.4,101.7,334.4,101.7z"/>
	<path class="st4" d="M345.4,101.7h5.1v0.5h-0.3c-0.3,0-0.5,0-0.8,0.3s-0.8,0.5-1,0.8c-0.3,0.3-0.8,0.8-1,1.5l-3.6,5.4v3.6
		c0,0.8,0,1.5,0.3,1.5c0.3,0.3,0.8,0.5,1.3,0.5h0.5v0.5h-6.1v-0.5h0.5c0.5,0,1-0.3,1.3-0.5c0.3-0.3,0.3-0.8,0.3-1.5v-3.6L338,104
		c-0.5-0.8-0.8-1-1-1.3c-0.3-0.3-0.5-0.5-1-0.5c-0.3,0-0.3,0-0.5,0v-0.5h6.1v0.5h-0.3c-0.3,0-0.5,0-1,0.3c-0.5,0.3-0.5,0.5-0.5,0.8
		s0.3,0.8,0.8,1.3l3.1,4.6l2.8-4.3c0.5-0.8,0.5-1.3,0.5-1.5s0-0.3-0.3-0.5s-0.3-0.3-0.5-0.3c-0.3,0-0.5-0.3-0.8-0.3L345.4,101.7
		L345.4,101.7z"/>
	<path class="st4" d="M349.2,119.6v-0.5c0.8-0.3,1.3-0.5,1.8-1c0.5-0.5,0.5-1,0.5-1.5c0-0.3,0-0.3,0-0.3s0,0-0.3,0
		c0,0-0.3,0-0.5,0.3c0,0-0.3,0-0.5,0c-0.3,0-0.5,0-0.8-0.3c-0.3-0.3-0.3-0.5-0.3-0.8s0.3-0.8,0.5-0.8c0.3,0,0.5-0.3,1-0.3
		c0.5,0,0.8,0.3,1.3,0.5c0.3,0.5,0.5,1,0.5,1.5c0,0.8-0.3,1.3-0.8,2C351.3,119.3,350.3,119.3,349.2,119.6z"/>
	<path class="st4" d="M363.3,102.4v5.6h3.1c0.8,0,1.3,0,1.5-0.3s0.5-1,0.5-1.8h0.5v5.1h-0.5c0-0.8-0.3-1-0.3-1.3s-0.3-0.5-0.5-0.5
		c-0.3-0.3-0.8-0.3-1.3-0.3h-3.1v4.6c0,0.5,0,1,0,1.3c0,0.3,0.3,0.3,0.3,0.3c0.3,0,0.5,0,0.8,0h2.6c0.8,0,1.3,0,1.8-0.3
		c0.3,0,0.8-0.3,1-0.8c0.5-0.5,0.8-1,1.3-2h0.5l-1.3,3.6h-11v-0.5h0.5c0.3,0,0.8,0,1-0.3c0.3,0,0.3-0.3,0.5-0.5c0-0.3,0-0.8,0-1.3
		V104c0-1,0-1.5-0.3-1.8c-0.3-0.3-0.8-0.5-1.3-0.5h-0.5v-0.5h11l0.3,3.1H370c-0.3-0.8-0.3-1.3-0.5-1.5c-0.3-0.3-0.5-0.5-0.8-0.8
		c-0.3,0-0.8-0.3-1.5-0.3h-3.8V102.4z"/>
	<path class="st4" d="M371.7,101.7h3.8l8.7,10.7v-8.2c0-0.8,0-1.5-0.3-1.5c-0.3-0.3-0.8-0.5-1.3-0.5h-0.5v-0.5h5.1v0.5h-0.5
		c-0.5,0-1,0.3-1.3,0.5s-0.3,0.8-0.3,1.5v12H385l-9.5-11.5v8.9c0,0.8,0,1.5,0.3,1.5c0.3,0.3,0.8,0.5,1.3,0.5h0.5v0.5h-5.1v-0.5h0.5
		c0.5,0,1-0.3,1.3-0.5s0.3-0.8,0.3-1.5v-10c-0.5-0.5-0.8-0.8-1-1c-0.3-0.3-0.5-0.3-1-0.5c-0.3,0-0.5,0-1,0v-0.5H371.7z"/>
	<path class="st4" d="M392.2,108.3h6.6v-4.1c0-0.8,0-1.3-0.3-1.5c0-0.3-0.3-0.3-0.5-0.5c-0.3-0.3-0.5-0.3-1-0.3h-0.5v-0.5h6.1v0.5
		h-0.5c-0.3,0-0.8,0-1,0.3c-0.3,0-0.3,0.3-0.5,0.5c-0.3,0.3,0,0.8,0,1.3v9.2c0,0.8,0,1.3,0.3,1.5c0,0.3,0.3,0.3,0.5,0.5
		c0.3,0.3,0.5,0.3,1,0.3h0.5v0.5h-6.1v-0.5h0.5c0.5,0,1-0.3,1.3-0.5c0.3-0.3,0.3-0.8,0.3-1.5v-4.3h-6.6v4.3c0,0.8,0,1.3,0.3,1.5
		c0,0.3,0.3,0.3,0.5,0.5c0.3,0.3,0.5,0.3,1,0.3h0.5v0.5h-6.1v-0.5h0.5c0.5,0,1-0.3,1.3-0.5c0.3-0.3,0.3-0.8,0.3-1.5v-9.2
		c0-0.8,0-1.3-0.3-1.5c0-0.3-0.3-0.3-0.5-0.5c-0.3-0.3-0.5-0.3-1-0.3h-0.5v-0.5h6.1v0.5h-0.5c-0.3,0-0.8,0-1,0.3
		c-0.3,0-0.3,0.3-0.5,0.5c0,0.3,0,0.8,0,1.3L392.2,108.3L392.2,108.3z"/>
	<path class="st4" d="M413.1,111.1h-5.4l-1,2.3c-0.3,0.5-0.3,1-0.3,1.3s0,0.5,0.3,0.5s0.8,0.3,1.3,0.3v0.5h-4.6v-0.5
		c0.5,0,1-0.3,1.3-0.5c0.3-0.3,0.8-1,1.3-2l5.1-11.8h0.3l5.1,12c0.5,1,0.8,1.5,1,1.8c0.3,0.3,0.8,0.5,1.3,0.5v0.5h-5.6v-0.5
		c0.5,0,1,0,1.3-0.3s0.3-0.3,0.3-0.5c0-0.3-0.3-0.8-0.5-1.5L413.1,111.1z M412.9,110.4l-2.6-5.9l-2.6,5.9H412.9z"/>
	<path class="st4" d="M418.8,101.7h3.8l8.7,10.7v-8.2c0-0.8,0-1.5-0.3-1.5c-0.3-0.3-0.8-0.5-1.3-0.5h-0.5v-0.5h5.1v0.5h-0.5
		c-0.5,0-1,0.3-1.3,0.5s-0.3,0.8-0.3,1.5v12h-0.3l-9.5-11.5v8.9c0,0.8,0,1.5,0.3,1.5c0.3,0.3,0.8,0.5,1.3,0.5h0.5v0.5h-5.1v-0.5h0.5
		c0.5,0,1-0.3,1.3-0.5s0.3-0.8,0.3-1.5v-10c-0.5-0.5-0.8-0.8-1-1c-0.3-0.3-0.5-0.3-1-0.5c-0.3,0-0.5,0-1,0v-0.5H418.8z"/>
	<path class="st4" d="M447.7,101.4l0.3,4.9h-0.3c-0.5-1.5-1-2.6-1.8-3.1c-0.8-0.8-1.8-1-2.8-1c-1,0-1.8,0.3-2.6,0.8
		c-0.8,0.5-1.3,1.3-1.8,2.3c-0.5,1-0.8,2.3-0.8,3.8c0,1.3,0.3,2.3,0.5,3.3c0.5,1,1,1.8,1.8,2.3c0.8,0.5,1.8,0.8,2.8,0.8
		c1,0,1.8-0.3,2.6-0.5c0.8-0.3,1.5-1.3,2.3-2.3l0.3,0.3c-0.8,1.3-1.5,2.3-2.6,2.8s-2,0.8-3.3,0.8c-2.3,0-4.1-0.8-5.6-2.6
		c-1-1.3-1.5-2.8-1.5-4.6c0-1.5,0.3-2.8,1-3.8c0.8-1.3,1.5-2,2.6-2.8c1-0.8,2.3-1,3.6-1c1,0,2,0.3,3.1,0.8c0.3,0.3,0.5,0.3,0.5,0.3
		c0.3,0,0.3,0,0.5-0.3c0.3-0.3,0.3-0.5,0.5-0.8h0.8V101.4z"/>
	<path class="st4" d="M453.5,102.4v5.6h3.1c0.8,0,1.3,0,1.5-0.3s0.5-1,0.5-1.8h0.5v5.1h-0.5c0-0.8-0.3-1-0.3-1.3s-0.3-0.5-0.5-0.5
		c-0.3-0.3-0.8-0.3-1.3-0.3h-3.1v4.6c0,0.5,0,1,0,1.3c0,0.3,0.3,0.3,0.3,0.3c0.3,0,0.5,0,0.8,0h2.6c0.8,0,1.3,0,1.8-0.3
		c0.3,0,0.8-0.3,1-0.8c0.5-0.5,0.8-1,1.3-2h0.5l-1.3,3.6h-11v-0.5h0.5c0.3,0,0.8,0,1-0.3c0.3,0,0.3-0.3,0.5-0.5c0-0.3,0-0.8,0-1.3
		V104c0-1,0-1.5-0.3-1.8c-0.3-0.3-0.8-0.5-1.3-0.5h-0.5v-0.5h11l0.3,3.1h-0.5c-0.3-0.8-0.3-1.3-0.5-1.5c-0.3-0.3-0.5-0.5-0.8-0.8
		c-0.3,0-0.8-0.3-1.5-0.3h-3.8V102.4z"/>
	<path class="st4" d="M480.9,101.4l0.3,4.9h-0.3c-0.5-1.5-1-2.6-1.8-3.1c-0.8-0.8-1.8-1-2.8-1c-1,0-1.8,0.3-2.6,0.8
		c-0.8,0.5-1.3,1.3-1.8,2.3c-0.5,1-0.8,2.3-0.8,3.8c0,1.3,0.3,2.3,0.5,3.3c0.5,1,1,1.8,1.8,2.3c0.8,0.5,1.8,0.8,2.8,0.8
		c1,0,1.8-0.3,2.6-0.5c0.8-0.3,1.5-1.3,2.3-2.3l0.3,0.3c-0.8,1.3-1.5,2.3-2.6,2.8s-2,0.8-3.3,0.8c-2.3,0-4.1-0.8-5.6-2.6
		c-1-1.3-1.5-2.8-1.5-4.6c0-1.5,0.3-2.8,1-3.8c0.8-1.3,1.5-2,2.6-2.8c1-0.8,2.3-1,3.6-1c1,0,2,0.3,3.1,0.8c0.3,0.3,0.5,0.3,0.5,0.3
		c0.3,0,0.3,0,0.5-0.3c0.3-0.3,0.3-0.5,0.5-0.8h0.8V101.4z"/>
	<path class="st4" d="M492.1,111.1h-5.6l-1,2.3c-0.3,0.5-0.3,1-0.3,1.3s0,0.5,0.3,0.5s0.8,0.3,1.3,0.3v0.5h-4.6v-0.5
		c0.5,0,1-0.3,1.3-0.5c0.3-0.3,0.8-1,1.3-2l5.1-11.8h0.3l5.1,12c0.5,1,0.8,1.5,1,1.8c0.3,0.3,0.8,0.5,1.3,0.5v0.5h-5.6v-0.5
		c0.5,0,1,0,1.3-0.3s0.3-0.3,0.3-0.5c0-0.3-0.3-0.8-0.5-1.5L492.1,111.1z M491.9,110.4l-2.6-5.9l-2.6,5.9H491.9z"/>
	<path class="st4" d="M502.4,109.3v4.1c0,1,0,1.5,0.3,1.8c0.3,0.3,0.8,0.5,1.3,0.5h0.5v0.5h-6.1v-0.5h0.5c0.5,0,1-0.3,1.3-0.5
		s0.3-0.8,0.3-1.5v-9.2c0-1,0-1.5-0.3-1.8c-0.3-0.3-0.8-0.5-1.3-0.5h-0.5v-0.5h5.4c1.3,0,2.3,0.3,3.1,0.5c0.8,0.3,1.3,0.8,1.8,1.3
		c0.5,0.5,0.8,1.3,0.8,2.3c0,1.3-0.5,2-1.3,2.8c-0.8,0.8-1.8,1-3.3,1c-0.3,0-0.8,0-1,0C503.4,109.6,502.9,109.3,502.4,109.3z
		 M502.4,108.6c0.3,0,0.8,0,1,0.3s0.5,0,0.8,0c0.8,0,1.3-0.3,1.8-0.8c0.5-0.5,0.8-1.3,0.8-2.3c0-0.5,0-1.3-0.3-1.8
		c-0.3-0.5-0.5-1-1-1.3c-0.5-0.3-1-0.5-1.5-0.5c-0.3,0-0.8,0-1.3,0.3v6.1H502.4z"/>
	<path class="st4" d="M517.7,111.1h-5.6l-1,2.3c-0.3,0.5-0.3,1-0.3,1.3s0,0.5,0.3,0.5s0.8,0.3,1.3,0.3v0.5h-4.6v-0.5
		c0.5,0,1-0.3,1.3-0.5c0.3-0.3,0.8-1,1.3-2l5.1-11.8h0.3l5.1,12c0.5,1,0.8,1.5,1,1.8c0.3,0.3,0.8,0.5,1.3,0.5v0.5h-5.4v-0.5
		c0.5,0,1,0,1.3-0.3s0.3-0.3,0.3-0.5c0-0.3-0.3-0.8-0.5-1.5L517.7,111.1z M517.4,110.4l-2.6-5.9l-2.6,5.9H517.4z"/>
	<path class="st4" d="M533.5,108.6c1,0.3,1.8,0.5,2.3,1c0.8,0.8,1,1.5,1,2.3c0,0.8-0.3,1.3-0.8,2c-0.5,0.8-1,1-1.8,1.5
		c-0.8,0.5-2,0.5-3.6,0.5h-6.6v-0.5h0.5c0.5,0,1-0.3,1.3-0.5c0.3-0.3,0.3-0.8,0.3-1.5v-9.2c0-0.8,0-1.5-0.3-1.8
		c-0.3-0.3-0.8-0.5-1.3-0.5h-0.5v-0.5h6.1c1.3,0,2,0,2.8,0.3c1,0.3,1.8,0.8,2.3,1.3c0.5,0.5,0.8,1.3,0.8,2.3c0,0.8-0.3,1.3-0.8,2
		C535.1,108.1,534.3,108.3,533.5,108.6z M527.9,108.1c0.3,0,0.5,0,1,0c0.3,0,0.8,0,1,0c1,0,1.8,0,2.3-0.3c0.5-0.3,1-0.5,1.3-1
		c0.3-0.5,0.5-1,0.5-1.5c0-0.8-0.3-1.5-1-2c-0.8-0.5-1.8-0.8-3.1-0.8c-0.8,0-1.3,0-1.8,0.3v5.4H527.9z M527.9,115
		c0.8,0.3,1.5,0.3,2.3,0.3c1.3,0,2.3-0.3,2.8-0.8c0.8-0.5,1-1.3,1-2c0-0.5-0.3-1-0.5-1.5c-0.3-0.5-0.8-1-1.5-1.3
		c-0.8-0.3-1.5-0.5-2.6-0.5c-0.5,0-0.8,0-1,0c-0.3,0-0.5,0-0.8,0v5.9H527.9z"/>
	<path class="st4" d="M544.8,115.7v0.5h-6.1v-0.5h0.5c0.5,0,1-0.3,1.3-0.5s0.3-0.8,0.3-1.5v-9.2c0-0.8,0-1.3-0.3-1.5
		c0-0.3-0.3-0.3-0.5-0.5c-0.3-0.3-0.5-0.3-1-0.3h-0.5v-0.5h6.1v0.5H544c-0.5,0-1,0.3-1.3,0.5c-0.3,0.3-0.3,0.8-0.3,1.5v9.2
		c0,0.8,0,1.3,0.3,1.5c0,0.3,0.3,0.3,0.5,0.5c0.3,0.3,0.5,0.3,1,0.3H544.8z"/>
	<path class="st4" d="M557.6,112.2h0.3l-1.3,3.8h-11v-0.5h0.5c0.5,0,1-0.3,1.3-0.5c0.3-0.3,0.3-0.8,0.3-1.5v-9.2c0-1,0-1.5-0.3-1.8
		c-0.3-0.3-0.8-0.5-1.3-0.5h-0.5v-0.5h6.4v0.5c-0.8,0-1.3,0-1.5,0.3s-0.5,0.3-0.5,0.5c0,0.3-0.3,0.8-0.3,1.5v8.9c0,0.5,0,1,0.3,1.3
		c0,0.3,0.3,0.3,0.5,0.3c0.3,0,0.8,0,1.5,0h1c1,0,1.8,0,2.3-0.3c0.5-0.3,0.8-0.5,1.3-0.8S557.3,112.9,557.6,112.2z"/>
	<path class="st4" d="M565.2,115.7v0.5h-6.1v-0.5h0.5c0.5,0,1-0.3,1.3-0.5s0.3-0.8,0.3-1.5v-9.2c0-0.8,0-1.3-0.3-1.5
		c0-0.3-0.3-0.3-0.5-0.5c-0.3-0.3-0.5-0.3-1-0.3h-0.5v-0.5h6.1v0.5h-0.5c-0.5,0-1,0.3-1.3,0.5c-0.3,0.3-0.3,0.8-0.3,1.5v9.2
		c0,0.8,0,1.3,0.3,1.5c0,0.3,0.3,0.3,0.5,0.5c0.3,0.3,0.5,0.3,1,0.3H565.2z"/>
	<path class="st4" d="M578.3,101.7l0.3,3.3H578c0-0.5-0.3-1-0.3-1.3c-0.3-0.5-0.5-0.8-0.8-1c-0.3-0.3-0.8-0.3-1.5-0.3h-2v11
		c0,0.8,0,1.5,0.3,1.5c0.3,0.3,0.8,0.5,1.3,0.5h0.5v0.5h-6.1v-0.5h0.5c0.5,0,1-0.3,1.3-0.5c0.3-0.3,0.3-0.8,0.3-1.5v-11h-1.8
		c-0.8,0-1,0-1.5,0.3c-0.3,0.3-0.8,0.5-1,0.8c-0.3,0.3-0.5,1-0.5,1.5h-0.3l0.3-3.3C566.5,101.7,578.3,101.7,578.3,101.7z"/>
	<path class="st4" d="M589.3,101.7h5.1v0.5h-0.3c-0.3,0-0.5,0-0.8,0.3s-0.8,0.5-1,0.8s-0.8,0.8-1,1.5l-3.6,5.4v3.6
		c0,0.8,0,1.5,0.3,1.5c0.3,0.3,0.8,0.5,1.3,0.5h0.5v0.5h-6.1v-0.5h0.5c0.5,0,1-0.3,1.3-0.5c0.3-0.3,0.3-0.8,0.3-1.5v-3.6l-3.8-6.1
		c-0.5-0.8-0.8-1-1-1.3c-0.3-0.3-0.5-0.5-1-0.5c-0.3,0-0.3,0-0.5,0v-0.5h6.1v0.5h-0.3c-0.3,0-0.5,0-1,0.3c-0.3,0.3-0.5,0.5-0.5,0.8
		s0.3,0.8,0.8,1.3l3.1,4.6l2.8-4.3c0.5-0.8,0.5-1.3,0.5-1.5s0-0.3-0.3-0.5s-0.3-0.3-0.5-0.3s-0.5-0.3-0.8-0.3L589.3,101.7
		L589.3,101.7z"/>
</g>
<g class="st3">
	<path class="st4" d="M178.8,37.5l0.5,10H178c-0.3-1.8-0.5-3.1-1-3.8c-0.8-1.3-1.5-2-2.6-2.6c-1-0.5-2.6-0.8-4.3-0.8h-5.9v32.2
		c0,2.6,0.3,4.1,0.8,4.9c0.8,0.8,2,1.3,3.6,1.3h1.5V80h-17.9v-1.3h1.5c1.8,0,3.1-0.5,3.8-1.5c0.5-0.8,0.8-2.3,0.8-4.6V40.1h-5.1
		c-2,0-3.3,0.3-4.1,0.5c-1,0.5-2,1.3-2.8,2.3c-0.8,1-1.3,2.6-1.3,4.6h-1.3l0.5-10H178.8z"/>
	<path class="st4" d="M203,36.5c5.4,0,10.2,2,14.3,6.1c4.1,4.1,6.1,9.5,6.1,15.6c0,6.4-2,11.8-6.1,16.1c-4.1,4.3-8.9,6.4-14.8,6.4
		s-10.7-2-14.6-6.1c-3.8-4.1-5.9-9.5-5.9-16.1s2.3-12.3,6.9-16.4C192.8,38.3,197.4,36.5,203,36.5z M202.5,38.8
		c-3.8,0-6.9,1.3-9.2,4.1c-2.8,3.6-4.3,8.7-4.3,15.3c0,6.9,1.5,12.3,4.3,15.8c2.3,2.8,5.4,4.3,8.9,4.3c4.1,0,7.2-1.5,9.7-4.6
		c2.6-3.1,3.8-7.9,3.8-14.6c0-7.2-1.5-12.5-4.3-16.1C209.7,40.1,206.4,38.8,202.5,38.8z"/>
	<path class="st4" d="M225,37.5h11.5l25.6,31.7V44.9c0-2.6-0.3-4.1-0.8-4.9c-0.8-0.8-2-1.3-3.6-1.3h-1.5v-1.3H271v1h-1.5
		c-1.8,0-3.1,0.5-3.8,1.5c-0.5,0.8-0.8,2.3-0.8,4.6v35.5h-1l-27.9-34v26.1c0,2.6,0.3,4.1,0.8,4.9c0.8,0.8,2,1.3,3.6,1.3h1.5v1.3
		h-14.8v-1.3h1.5c1.8,0,3.1-0.5,3.8-1.5c0.5-0.8,0.8-2.3,0.8-4.6V42.9c-1.3-1.5-2-2.3-2.8-2.8c-0.5-0.5-1.5-0.8-2.8-1.3
		c-0.5-0.3-1.5-0.3-2.8-0.3v-1H225z"/>
	<path class="st4" d="M308.9,37.5l0.5,10h-1.3c-0.3-1.8-0.5-3.1-1-3.8c-0.8-1.3-1.5-2-2.6-2.6s-2.6-0.8-4.3-0.8h-5.9v32.2
		c0,2.6,0.3,4.1,0.8,4.9c0.8,0.8,2,1.3,3.6,1.3h1.5V80h-17.9v-1.3h1.5c1.8,0,3.1-0.5,3.8-1.5c0.5-0.8,0.8-2.3,0.8-4.6V40.1h-5.1
		c-2,0-3.3,0.3-4.1,0.5c-1,0.5-2,1.3-2.8,2.3c-0.8,1-1.3,2.6-1.3,4.6h-1.3l0.5-10H308.9z"/>
	<path class="st4" d="M332.9,36.5c5.4,0,10.2,2,14.3,6.1c4.1,4.1,6.1,9.5,6.1,15.6c0,6.4-2,11.8-6.1,16.1c-4.1,4.3-8.9,6.4-14.8,6.4
		c-5.9,0-10.7-2-14.6-6.1c-3.8-4.1-5.9-9.5-5.9-16.1s2.3-12.3,6.9-16.4C322.7,38.3,327.5,36.5,332.9,36.5z M332.4,38.8
		c-3.8,0-6.9,1.3-9.2,4.1c-2.8,3.6-4.3,8.7-4.3,15.3c0,6.9,1.5,12.3,4.3,15.8c2.3,2.8,5.4,4.3,8.9,4.3c4.1,0,7.2-1.5,9.7-4.6
		c2.6-3.1,3.8-7.9,3.8-14.6c0-7.2-1.5-12.5-4.3-16.1C339.5,40.1,336.5,38.8,332.4,38.8z"/>
	<path class="st4" d="M415.4,37.5v1c-1,0-2,0.3-2.6,0.5c-0.8,0.5-1.3,1-2,2.3c-0.5,0.8-1,2.6-2,5.1l-11.8,34h-1.3l-9.7-27.1
		l-9.5,27.1h-1l-12.5-35c-1-2.6-1.5-4.1-1.8-4.6c-0.5-0.8-1-1.3-1.8-1.8c-0.8-0.5-1.8-0.5-2.8-0.5v-1.3h15.6v1.3h-0.8
		c-1,0-2,0.3-2.6,0.8c-0.5,0.5-0.8,1-0.8,1.8c0,0.8,0.5,2.3,1.3,5.1l8.4,23.8l6.9-20.2l-1.3-3.6l-1-2.8c-0.5-1-1-2-1.5-2.8
		c-0.3-0.5-0.5-0.8-1-1c-0.5-0.3-1-0.8-1.5-0.8s-1-0.3-1.8-0.3v-1.3H393v1.3h-1c-1.3,0-2,0.3-2.6,0.8c-0.5,0.5-0.8,1.3-0.8,2
		c0,1,0.5,2.8,1.3,5.6l8.2,23l7.9-23.3c1-2.6,1.3-4.3,1.3-5.4c0-0.5-0.3-1-0.5-1.3c-0.3-0.5-0.8-0.8-1-0.8c-0.8-0.3-1.8-0.5-3.1-0.5
		v-1.3C402.7,37.5,415.4,37.5,415.4,37.5z"/>
	<path class="st4" d="M435.6,78.4v1.3h-18.1v-1.3h1.5c1.8,0,3.1-0.5,3.8-1.5c0.5-0.8,0.8-2.3,0.8-4.9V44.9c0-2-0.3-3.6-0.5-4.3
		c-0.3-0.5-0.5-1-1.3-1.3c-1-0.5-1.8-0.8-2.8-0.8h-1.5v-1.3h18.1v1.3h-1.5c-1.8,0-3.1,0.5-3.8,1.5c-0.5,0.8-0.8,2.3-0.8,4.9v27.3
		c0,2,0.3,3.6,0.5,4.3c0.3,0.5,0.8,1,1.3,1.3c0.8,0.5,1.8,0.8,2.8,0.8h1.5V78.4z"/>
	<path class="st4" d="M472.7,78.4v1.3h-18.1v-1.3h1.5c1.8,0,3.1-0.5,3.8-1.5c0.5-0.8,0.8-2.3,0.8-4.9V44.9c0-2-0.3-3.6-0.5-4.3
		c-0.3-0.5-0.5-1-1.3-1.3c-1-0.5-1.8-0.8-2.8-0.8h-1.5v-1.3h18.1v1.3h-1.5c-1.8,0-3.1,0.5-3.8,1.5c-0.5,0.8-0.8,2.3-0.8,4.9v27.3
		c0,2,0.3,3.6,0.5,4.3c0.3,0.5,0.8,1,1.3,1.3c0.8,0.5,1.8,0.8,2.8,0.8h1.5V78.4z"/>
	<path class="st4" d="M473.5,37.5H485l25.8,31.7V44.9c0-2.6-0.3-4.1-0.8-4.9c-0.8-0.8-2-1.3-3.6-1.3h-1.5v-1.3h14.8v1h-1.5
		c-1.8,0-3.1,0.5-3.8,1.5c-0.5,0.8-0.8,2.3-0.8,4.6v35.5h-1l-28.1-33.7v26.1c0,2.6,0.3,4.1,0.8,4.9c0.8,0.8,2,1.3,3.6,1.3h1.5V80
		h-14.8v-1.3h1.5c1.8,0,3.1-0.5,3.8-1.5c0.5-0.8,0.8-2.3,0.8-4.6V42.9c-1.3-1.5-2-2.3-2.8-2.8c-0.8-0.5-1.5-0.8-2.8-1.3
		c-0.5-0.3-1.5-0.3-2.8-0.3v-1H473.5z"/>
	<path class="st4" d="M549.6,36.5v14.6h-1.3c-0.3-2.8-1-5.1-2-6.6c-1-1.8-2.3-3.1-4.1-3.8c-1.8-1-3.6-1.5-5.6-1.5s-3.8,0.8-5.4,2
		c-1.5,1.3-2,2.8-2,4.6c0,1.3,0.5,2.6,1.3,3.6c1.3,1.5,4.3,3.6,9.2,6.1c3.8,2,6.6,3.8,8.2,4.9s2.6,2.6,3.3,4.1s1.3,3.1,1.3,4.9
		c0,3.3-1.3,5.9-3.8,8.2S543,81,539.2,81c-1.3,0-2.3,0-3.6-0.3c-0.8,0-2-0.5-4.1-1c-2-0.5-3.3-1-3.8-1c-0.5,0-1,0.3-1.3,0.5
		c-0.3,0.3-0.5,1-0.8,2h-1.3V66.7h1.3c0.5,3.1,1.3,5.4,2.3,6.9c1,1.5,2.3,2.8,4.1,3.8s3.8,1.5,6.1,1.5c2.6,0,4.6-0.8,6.1-2
		c1.5-1.3,2.3-3.1,2.3-4.9c0-1-0.3-2-0.8-3.1c-0.5-1-1.5-2-2.6-3.1c-0.8-0.5-3.1-2-6.6-4.1s-6.1-3.6-7.7-4.9
		c-1.5-1.3-2.6-2.6-3.6-4.1c-0.8-1.5-1.3-3.1-1.3-4.9c0-3.1,1.3-5.6,3.6-7.9s5.4-3.3,8.9-3.3c2.3,0,4.6,0.5,7.2,1.5
		c1.3,0.5,2,0.8,2.6,0.8c0.5,0,1-0.3,1.3-0.5c0.3-0.3,0.5-1,0.8-2C548.4,36.5,549.6,36.5,549.6,36.5z"/>
	<path class="st4" d="M592.8,37.5l0.5,10h-1.3c-0.3-1.8-0.5-3.1-1-3.8c-0.8-1.3-1.5-2-2.6-2.6c-1-0.5-2.6-0.8-4.3-0.8h-5.9v32.2
		c0,2.6,0.3,4.1,0.8,4.9c0.8,0.8,2,1.3,3.6,1.3h1.5V80h-17.9v-1.3h1.5c1.8,0,3.1-0.5,3.8-1.5c0.5-0.8,0.8-2.3,0.8-4.6V40.1h-5.1
		c-2,0-3.3,0.3-4.1,0.5c-1,0.5-2,1.3-2.8,2.3c-0.8,1-1.3,2.6-1.3,4.6h-1.3l0.5-10H592.8z"/>
	<path class="st4" d="M614.6,78.4v1.3h-18.1v-1.3h1.5c1.8,0,3.1-0.5,3.8-1.5c0.5-0.8,0.8-2.3,0.8-4.9V44.9c0-2-0.3-3.6-0.5-4.3
		c-0.3-0.5-0.5-1-1.3-1.3c-1-0.5-1.8-0.8-2.8-0.8h-1.5v-1.3h18.1v1.3H613c-1.8,0-3.1,0.5-3.8,1.5c-0.5,0.8-0.8,2.3-0.8,4.9v27.3
		c0,2,0.3,3.6,0.5,4.3c0.3,0.5,0.8,1,1.3,1.3c0.8,0.5,1.8,0.8,2.8,0.8h1.5V78.4z"/>
	<path class="st4" d="M652.9,37.5l0.5,10h-1.3c-0.3-1.8-0.5-3.1-1-3.8c-0.8-1.3-1.5-2-2.6-2.6c-1-0.5-2.6-0.8-4.3-0.8h-5.9v32.2
		c0,2.6,0.3,4.1,0.8,4.9c0.8,0.8,2,1.3,3.6,1.3h1.5V80h-17.9v-1.3h1.5c1.8,0,3.1-0.5,3.8-1.5c0.5-0.8,0.8-2.3,0.8-4.6V40.1h-5.1
		c-2,0-3.3,0.3-4.1,0.5c-1,0.5-2,1.3-2.8,2.3c-0.8,1-1.3,2.6-1.3,4.6h-1.3l0.5-10H652.9z"/>
	<path class="st4" d="M685.6,38.5v-1.3h14.8v1.3h-1.5c-1.8,0-3.1,0.8-3.8,2c-0.5,0.8-0.8,2-0.8,4.6v17.1c0,4.3-0.5,7.4-1.3,10
		c-0.8,2.3-2.6,4.3-4.9,6.1c-2.6,1.8-5.9,2.6-10,2.6c-4.6,0-8.2-0.8-10.5-2.3s-4.1-3.8-5.1-6.4c-0.8-1.8-1-5.4-1-10.5V45.2
		c0-2.6-0.3-4.3-1-5.1c-0.8-0.8-1.8-1.3-3.6-1.3h-1.5v-1.3h18.1v1h-1.5c-1.8,0-3.1,0.5-3.8,1.5c-0.5,0.8-0.8,2.3-0.8,4.6v18.4
		c0,1.5,0.3,3.6,0.5,5.6c0.3,2,0.8,3.8,1.5,4.9c0.8,1.3,2,2,3.3,2.8c1.5,0.8,3.3,1.3,5.4,1.3c2.8,0,5.1-0.5,7.4-1.8s3.6-2.8,4.3-4.6
		c0.8-1.8,1.3-5.1,1.3-9.5V44.7c0-2.6-0.3-4.3-0.8-4.9c-0.8-1-2-1.3-3.6-1.3C686.9,38.5,685.6,38.5,685.6,38.5z"/>
	<path class="st4" d="M738,37.5l0.5,10h-1.3c-0.3-1.8-0.5-3.1-1-3.8c-0.8-1.3-1.5-2-2.6-2.6c-1-0.5-2.6-0.8-4.3-0.8h-5.9v32.2
		c0,2.6,0.3,4.1,0.8,4.9c0.8,0.8,2,1.3,3.6,1.3h1.5V80h-17.9v-1.3h1.5c1.8,0,3.1-0.5,3.8-1.5c0.5-0.8,0.8-2.3,0.8-4.6V40.1h-5.1
		c-2,0-3.3,0.3-4.1,0.5c-1,0.5-2,1.3-2.8,2.3c-0.8,1-1.3,2.6-1.3,4.6H703l0.5-10H738z"/>
	<path class="st4" d="M753.3,39.8v16.6h9.2c2.3,0,4.1-0.3,4.9-1c1-1,1.8-2.6,1.8-5.1h1.3v14.8h-1.3c-0.3-2-0.5-3.3-0.8-3.8
		c-0.3-0.8-1-1.3-1.8-1.8s-2-0.5-3.8-0.5h-9.2v13.8c0,1.8,0,3.1,0.3,3.3c0.3,0.5,0.5,0.8,0.8,1c0.5,0.3,1.3,0.3,2.3,0.3h7.2
		c2.3,0,4.1-0.3,5.1-0.5c1-0.3,2-1,3.1-2c1.3-1.3,2.6-3.3,3.8-5.9h1.3l-3.6,10.5h-32.5v-1.3h1.5c1,0,2-0.3,2.8-0.8
		c0.8-0.3,1-0.8,1.3-1.5s0.3-2,0.3-4.1V44.7c0-2.6-0.3-4.3-0.8-4.9c-0.8-0.8-2-1.3-3.8-1.3h-1.5v-1.3h32.5l0.5,9.2h-0.8
		c-0.5-2.3-1-3.8-1.5-4.6s-1.3-1.5-2.3-1.8c-0.8-0.3-2.3-0.5-4.3-0.5h-11.8V39.8z"/>
</g>
</svg>
